<svg width="20" height="12" viewBox="0 0 20 12" fill="none" xmlns="http://www.w3.org/2000/svg">
<path id="Vector" d="M1.17329 2.72479L9.57329 11.1498C9.67329 11.2498 9.78162 11.3208 9.89829 11.3628C10.015 11.4048 10.14 11.4255 10.2733 11.4248C10.4066 11.4248 10.5316 11.4038 10.6483 11.3618C10.765 11.3198 10.8733 11.2491 10.9733 11.1498L19.3983 2.72479C19.6316 2.49146 19.7483 2.19979 19.7483 1.84979C19.7483 1.49979 19.6233 1.19979 19.3733 0.949789C19.1233 0.699789 18.8316 0.574789 18.4983 0.574789C18.165 0.574789 17.8733 0.699789 17.6233 0.949789L10.2733 8.29979L2.92329 0.949789C2.68996 0.716456 2.40229 0.599789 2.06029 0.599789C1.71829 0.599789 1.42262 0.724789 1.17329 0.974789C0.92329 1.22479 0.79829 1.51646 0.79829 1.84979C0.79829 2.18312 0.92329 2.47479 1.17329 2.72479Z" fill="#999999"/>
</svg>
