<svg width="10" height="11" viewBox="0 0 10 11" fill="none" xmlns="http://www.w3.org/2000/svg">
<g id="vuesax/outline/award">
<g id="award">
<path id="Vector" d="M5.00002 9.63125C4.75002 9.63125 4.50419 9.57292 4.30419 9.46042L2.33336 8.32292C1.51669 7.77292 1.46252 7.67292 1.46252 6.81042V4.74375C1.46252 3.88125 1.51669 3.78125 2.31669 3.24375L4.30836 2.09375C4.70419 1.86458 5.30002 1.86458 5.69586 2.09375L7.66669 3.23125C8.48336 3.78125 8.53752 3.88125 8.53752 4.74375V6.81042C8.53752 7.67292 8.48336 7.77292 7.68336 8.31042L5.69169 9.46042C5.49586 9.57708 5.24586 9.63125 5.00002 9.63125ZM5.00002 2.54792C4.85836 2.54792 4.71669 2.57708 4.61669 2.63542L2.64586 3.77292C2.08752 4.15208 2.08752 4.15208 2.08752 4.74375V6.81042C2.08752 7.40208 2.08752 7.40208 2.66669 7.79375L4.62086 8.91875C4.82086 9.03542 5.18336 9.03542 5.38336 8.91875L7.35419 7.78125C7.91252 7.40208 7.91252 7.40208 7.91252 6.81042V4.74375C7.91252 4.15208 7.91252 4.15208 7.33336 3.76042L5.37919 2.63542C5.28336 2.57708 5.14169 2.54792 5.00002 2.54792Z" fill="#4EAF00"/>
<path id="Vector_2" d="M7.29171 3.64466C7.12087 3.64466 6.97921 3.503 6.97921 3.33216V2.23633C6.97921 1.57799 6.70004 1.29883 6.04171 1.29883H3.95837C3.30004 1.29883 3.02087 1.57799 3.02087 2.23633V3.30299C3.02087 3.47383 2.87921 3.6155 2.70837 3.6155C2.53754 3.6155 2.39587 3.47799 2.39587 3.30299V2.23633C2.39587 1.22799 2.95004 0.673828 3.95837 0.673828H6.04171C7.05004 0.673828 7.60421 1.22799 7.60421 2.23633V3.33216C7.60421 3.503 7.46254 3.64466 7.29171 3.64466Z" fill="#4EAF00"/>
<path id="Vector_3" d="M5.67918 7.49896C5.59168 7.49896 5.50002 7.48229 5.40835 7.44479L5.00002 7.28646L4.59168 7.44896C4.37085 7.53646 4.14585 7.51562 3.97918 7.39479C3.81252 7.27396 3.72502 7.06563 3.73752 6.82813L3.76252 6.39063L3.48335 6.05313C3.33335 5.86563 3.28335 5.64896 3.35002 5.44896C3.41252 5.25313 3.58335 5.10312 3.81252 5.04479L4.23752 4.93646L4.47502 4.56563C4.72918 4.16562 5.27502 4.16562 5.52918 4.56563L5.76668 4.93646L6.19168 5.04479C6.42085 5.10312 6.59168 5.25313 6.65418 5.44896C6.71668 5.64479 6.66668 5.86562 6.51668 6.04896L6.23752 6.38646L6.26252 6.82396C6.27502 7.06146 6.18752 7.26563 6.02085 7.39063C5.92085 7.46146 5.80418 7.49896 5.67918 7.49896ZM3.96668 5.65313L4.24585 5.99063C4.34168 6.10313 4.39585 6.28229 4.38752 6.42813L4.36252 6.86563L4.77085 6.70313C4.90835 6.64896 5.09168 6.64896 5.22918 6.70313L5.63752 6.86563L5.61252 6.42813C5.60418 6.28229 5.65835 6.10729 5.75418 5.99063L6.03335 5.65313L5.60835 5.54479C5.46668 5.50729 5.31668 5.39896 5.23752 5.27813L5.00418 4.91146L4.76668 5.27813C4.68752 5.40313 4.53752 5.51146 4.39585 5.54896L3.96668 5.65313Z" fill="#4EAF00"/>
</g>
</g>
</svg>
