<svg width="16" height="17" viewBox="0 0 16 17" fill="none" xmlns="http://www.w3.org/2000/svg">
<g id="vuesax/outline/profile-add">
<g id="profile-add">
<path id="Vector" d="M12.3334 14H9.66675C9.39341 14 9.16675 13.7733 9.16675 13.5C9.16675 13.2267 9.39341 13 9.66675 13H12.3334C12.6067 13 12.8334 13.2267 12.8334 13.5C12.8334 13.7733 12.6067 14 12.3334 14Z" fill="white"/>
<path id="Vector_2" d="M11.0001 15.3327C10.7268 15.3327 10.5001 15.106 10.5001 14.8327V12.166C10.5001 11.8927 10.7268 11.666 11.0001 11.666C11.2735 11.666 11.5001 11.8927 11.5001 12.166V14.8327C11.5001 15.106 11.2735 15.3327 11.0001 15.3327Z" fill="white"/>
<path id="Vector_3" d="M8.1068 8.24732C8.0868 8.24732 8.07346 8.24732 8.05346 8.24732C8.02013 8.24065 7.97346 8.24065 7.93346 8.24732C6.00013 8.18732 4.54013 6.66732 4.54013 4.79398C4.53346 3.87398 4.89346 3.00732 5.5468 2.35398C6.20013 1.70065 7.0668 1.33398 7.99346 1.33398C9.90013 1.33398 11.4535 2.88732 11.4535 4.79398C11.4535 6.66732 9.99346 8.18065 8.1268 8.24732C8.12013 8.24732 8.11346 8.24732 8.1068 8.24732ZM7.99346 2.33398C7.33346 2.33398 6.72013 2.59398 6.25346 3.05398C5.79346 3.52065 5.54013 4.13398 5.54013 4.78732C5.54013 6.12065 6.58013 7.20065 7.9068 7.24065C7.9468 7.23398 8.03346 7.23398 8.12013 7.24065C9.43346 7.18065 10.4535 6.10732 10.4535 4.78732C10.4535 3.44065 9.3468 2.33398 7.99346 2.33398Z" fill="white"/>
<path id="Vector_4" d="M7.9934 15.5404C6.6334 15.5404 5.34673 15.1871 4.3734 14.5338C3.44673 13.9138 2.94006 13.0671 2.94006 12.1538C2.94006 11.2404 3.4534 10.4004 4.3734 9.78711C6.36673 8.45378 9.60673 8.45378 11.6001 9.78711C11.8267 9.94044 11.8934 10.2538 11.7401 10.4804C11.5867 10.7138 11.2734 10.7738 11.0467 10.6204C9.38673 9.51378 6.58673 9.51378 4.92673 10.6204C4.28673 11.0471 3.94006 11.5871 3.94006 12.1538C3.94006 12.7204 4.28673 13.2738 4.92673 13.7004C5.7334 14.2404 6.82006 14.5338 7.98673 14.5338C8.26006 14.5338 8.48673 14.7604 8.48673 15.0338C8.48673 15.3071 8.26673 15.5404 7.9934 15.5404Z" fill="white"/>
</g>
</g>
</svg>
