<svg width="19" height="19" viewBox="0 0 19 19" fill="none" xmlns="http://www.w3.org/2000/svg">
<g id="vuesax/outline/profile-tick">
<g id="profile-tick">
<path id="Vector" d="M12.4702 16.1414C12.3277 16.1414 12.1852 16.0889 12.0727 15.9764L10.9327 14.8364C10.7152 14.6189 10.7152 14.2589 10.9327 14.0414C11.1502 13.8239 11.5102 13.8239 11.7277 14.0414L12.4702 14.7839L14.3527 12.9014C14.5702 12.6839 14.9302 12.6839 15.1477 12.9014C15.3652 13.1189 15.3652 13.4789 15.1477 13.6964L12.8677 15.9764C12.7552 16.0889 12.6127 16.1414 12.4702 16.1414Z" fill="white"/>
<path id="Vector_2" d="M9.62015 8.86734C9.59765 8.86734 9.58265 8.86734 9.56015 8.86734C9.52265 8.85984 9.47015 8.85984 9.42515 8.86734C7.25015 8.79984 5.60765 7.08984 5.60765 4.98234C5.60015 3.94734 6.00515 2.97234 6.74015 2.23734C7.47515 1.50234 8.45015 1.08984 9.49265 1.08984C11.6376 1.08984 13.3851 2.83734 13.3851 4.98234C13.3851 7.08984 11.7426 8.79234 9.64265 8.86734C9.63515 8.86734 9.62765 8.86734 9.62015 8.86734ZM9.49265 2.21484C8.75015 2.21484 8.06015 2.50734 7.53515 3.02484C7.01765 3.54984 6.73265 4.23984 6.73265 4.97484C6.73265 6.47484 7.90265 7.68984 9.39515 7.73484C9.44015 7.72734 9.53765 7.72734 9.63515 7.73484C11.1126 7.66734 12.2601 6.45984 12.2601 4.97484C12.2601 3.45984 11.0151 2.21484 9.49265 2.21484Z" fill="white"/>
<path id="Vector_3" d="M9.49262 17.0721C7.96262 17.0721 6.51512 16.6746 5.42012 15.9396C4.37762 15.2421 3.80762 14.2896 3.80762 13.2621C3.80762 12.2346 4.38512 11.2896 5.42012 10.5996C7.66262 9.09961 11.3076 9.09961 13.5501 10.5996C13.8051 10.7721 13.8801 11.1246 13.7076 11.3796C13.5351 11.6421 13.1826 11.7096 12.9276 11.5371C11.0601 10.2921 7.91012 10.2921 6.04262 11.5371C5.32262 12.0171 4.93262 12.6246 4.93262 13.2621C4.93262 13.8996 5.32262 14.5221 6.04262 15.0021C6.95012 15.6096 8.17262 15.9396 9.48512 15.9396C9.79262 15.9396 10.0476 16.1946 10.0476 16.5021C10.0476 16.8096 9.80012 17.0721 9.49262 17.0721Z" fill="white"/>
</g>
</g>
</svg>
