<svg width="16" height="16" viewBox="0 0 16 16" fill="none" xmlns="http://www.w3.org/2000/svg">
<g id="vuesax/outline/profile-tick">
<g id="profile-tick">
<path id="Vector" d="M10.6401 14.2125C10.5134 14.2125 10.3868 14.1658 10.2868 14.0658L9.27342 13.0525C9.08008 12.8592 9.08008 12.5392 9.27342 12.3458C9.46675 12.1525 9.78675 12.1525 9.98009 12.3458L10.6401 13.0058L12.3134 11.3325C12.5068 11.1392 12.8268 11.1392 13.0201 11.3325C13.2134 11.5258 13.2134 11.8458 13.0201 12.0392L10.9934 14.0658C10.8934 14.1658 10.7668 14.2125 10.6401 14.2125Z" fill="white"/>
<path id="Vector_2" d="M8.1068 7.74732C8.0868 7.74732 8.07346 7.74732 8.05346 7.74732C8.02013 7.74065 7.97346 7.74065 7.93346 7.74732C6.00013 7.68732 4.54013 6.16732 4.54013 4.29398C4.53346 3.37398 4.89346 2.50732 5.5468 1.85398C6.20013 1.20065 7.0668 0.833984 7.99346 0.833984C9.90013 0.833984 11.4535 2.38732 11.4535 4.29398C11.4535 6.16732 9.99346 7.68065 8.1268 7.74732C8.12013 7.74732 8.11346 7.74732 8.1068 7.74732ZM7.99346 1.83398C7.33346 1.83398 6.72013 2.09398 6.25346 2.55398C5.79346 3.02065 5.54013 3.63398 5.54013 4.28732C5.54013 5.62065 6.58013 6.70065 7.9068 6.74065C7.9468 6.73398 8.03346 6.73398 8.12013 6.74065C9.43346 6.68065 10.4535 5.60732 10.4535 4.28732C10.4535 2.94065 9.3468 1.83398 7.99346 1.83398Z" fill="white"/>
<path id="Vector_3" d="M7.9934 15.0404C6.6334 15.0404 5.34673 14.6871 4.3734 14.0338C3.44673 13.4138 2.94006 12.5671 2.94006 11.6538C2.94006 10.7404 3.4534 9.90044 4.3734 9.28711C6.36673 7.95378 9.60673 7.95378 11.6001 9.28711C11.8267 9.44044 11.8934 9.75378 11.7401 9.98044C11.5867 10.2138 11.2734 10.2738 11.0467 10.1204C9.38673 9.01378 6.58673 9.01378 4.92673 10.1204C4.28673 10.5471 3.94006 11.0871 3.94006 11.6538C3.94006 12.2204 4.28673 12.7738 4.92673 13.2004C5.7334 13.7404 6.82006 14.0338 7.98673 14.0338C8.26006 14.0338 8.48673 14.2604 8.48673 14.5338C8.48673 14.8071 8.26673 15.0404 7.9934 15.0404Z" fill="white"/>
</g>
</g>
</svg>
