<svg width="93" height="37" viewBox="0 0 93 37" fill="none" xmlns="http://www.w3.org/2000/svg">
<g id="Group 50">
<g id="Group 49">
<g id="Iconly/Curved/Notification">
<g id="Notification">
<path id="Stroke-1" fill-rule="evenodd" clip-rule="evenodd" d="M12.601 5.5C5.63208 5.5 2.60412 11.8104 2.60412 15.9819C2.60412 19.0997 3.05614 18.1821 1.33037 21.9854C-0.777085 27.4052 7.69763 29.6205 12.601 29.6205C17.503 29.6205 25.9777 27.4052 23.8717 21.9854C22.1459 18.1821 22.598 19.0997 22.598 15.9819C22.598 11.8104 19.5685 5.5 12.601 5.5Z" stroke="#999999" stroke-width="1.5" stroke-linecap="round" stroke-linejoin="round"/>
<path id="Stroke-3" d="M16.2313 33.7861C14.1972 36.0582 11.024 36.0852 8.97046 33.7861" stroke="#999999" stroke-width="1.5" stroke-linecap="round" stroke-linejoin="round"/>
</g>
</g>
<g id="Ellipse 5" filter="url(#filter0_d_54_2214)">
<circle cx="20.5" cy="8" r="7.5" fill="#4EAF00"/>
<circle cx="20.5" cy="8" r="6" stroke="white" stroke-width="3"/>
</g>
</g>
<g id="Group 48">
<g id="Iconly/Curved/Chat">
<g id="Chat">
<path id="Stroke-11" d="M78.9092 21.1191H78.9227" stroke="#999999" stroke-width="2" stroke-linecap="round" stroke-linejoin="round"/>
<path id="Stroke-13" d="M72.8955 21.1191H72.909" stroke="#999999" stroke-width="2" stroke-linecap="round" stroke-linejoin="round"/>
<path id="Stroke-15" d="M66.8821 21.1191H66.8956" stroke="#999999" stroke-width="2" stroke-linecap="round" stroke-linejoin="round"/>
<path id="Stroke-4" fill-rule="evenodd" clip-rule="evenodd" d="M83.6066 31.1048C79.0239 35.6895 72.2344 36.6801 66.6795 34.111C65.8594 33.7808 60.5517 35.2508 59.4 34.1005C58.2483 32.9486 59.7196 27.6402 59.3895 26.82C56.8193 21.2659 57.8112 14.4739 62.3953 9.89065C68.2472 4.03645 77.7547 4.03645 83.6066 9.89065C89.4705 15.7539 89.4585 25.2521 83.6066 31.1048Z" stroke="#999999" stroke-width="1.5" stroke-linecap="round" stroke-linejoin="round"/>
</g>
</g>
<g id="Ellipse 6" filter="url(#filter1_d_54_2214)">
<circle cx="81.2983" cy="8" r="7.5" fill="#4EAF00"/>
<circle cx="81.2983" cy="8" r="6" stroke="white" stroke-width="3"/>
</g>
</g>
</g>
<defs>
<filter id="filter0_d_54_2214" x="9" y="0.5" width="23" height="23" filterUnits="userSpaceOnUse" color-interpolation-filters="sRGB">
<feFlood flood-opacity="0" result="BackgroundImageFix"/>
<feColorMatrix in="SourceAlpha" type="matrix" values="0 0 0 0 0 0 0 0 0 0 0 0 0 0 0 0 0 0 127 0" result="hardAlpha"/>
<feOffset dy="4"/>
<feGaussianBlur stdDeviation="2"/>
<feComposite in2="hardAlpha" operator="out"/>
<feColorMatrix type="matrix" values="0 0 0 0 0 0 0 0 0 0 0 0 0 0 0 0 0 0 0.05 0"/>
<feBlend mode="normal" in2="BackgroundImageFix" result="effect1_dropShadow_54_2214"/>
<feBlend mode="normal" in="SourceGraphic" in2="effect1_dropShadow_54_2214" result="shape"/>
</filter>
<filter id="filter1_d_54_2214" x="69.7983" y="0.5" width="23" height="23" filterUnits="userSpaceOnUse" color-interpolation-filters="sRGB">
<feFlood flood-opacity="0" result="BackgroundImageFix"/>
<feColorMatrix in="SourceAlpha" type="matrix" values="0 0 0 0 0 0 0 0 0 0 0 0 0 0 0 0 0 0 127 0" result="hardAlpha"/>
<feOffset dy="4"/>
<feGaussianBlur stdDeviation="2"/>
<feComposite in2="hardAlpha" operator="out"/>
<feColorMatrix type="matrix" values="0 0 0 0 0 0 0 0 0 0 0 0 0 0 0 0 0 0 0.05 0"/>
<feBlend mode="normal" in2="BackgroundImageFix" result="effect1_dropShadow_54_2214"/>
<feBlend mode="normal" in="SourceGraphic" in2="effect1_dropShadow_54_2214" result="shape"/>
</filter>
</defs>
</svg>
