<svg width="20" height="16" viewBox="0 0 20 16" fill="none" xmlns="http://www.w3.org/2000/svg">
<g id="Group 3">
<path id="Vector" d="M19.2993 10.1552C19.0838 9.98926 18.8329 9.87547 18.5661 9.82268C18.2993 9.76989 18.0239 9.77955 17.7615 9.85088L13.5112 10.824C13.6947 10.5102 13.7914 10.1532 13.7913 9.78968C13.7913 9.24103 13.5734 8.71485 13.1854 8.32689C12.7975 7.93893 12.2713 7.72098 11.7226 7.72098H7.40768C7.09059 7.72006 6.77648 7.78206 6.48352 7.90339C6.19056 8.02471 5.92459 8.20295 5.701 8.42779L3.64954 10.4793H1.03435C0.760024 10.4793 0.496933 10.5882 0.302954 10.7822C0.108976 10.9762 0 11.2393 0 11.5136V14.9614C0 15.2358 0.108976 15.4989 0.302954 15.6928C0.496933 15.8868 0.760024 15.9958 1.03435 15.9958H9.99873C10.0278 15.996 10.0567 15.9925 10.0849 15.9854L15.6015 14.6063C15.6191 14.6017 15.6363 14.596 15.6532 14.5891L18.9993 13.1634L19.0183 13.1548C19.2879 13.02 19.5187 12.8188 19.6891 12.5702C19.8595 12.3216 19.9637 12.0337 19.9921 11.7336C20.0205 11.4336 19.972 11.1312 19.8512 10.8551C19.7305 10.5789 19.5414 10.3381 19.3019 10.1552H19.2993ZM0.689567 14.9614V11.5136C0.689567 11.4222 0.725893 11.3345 0.790552 11.2698C0.855212 11.2051 0.942909 11.1688 1.03435 11.1688H3.44784V15.3062H1.03435C0.942909 15.3062 0.855212 15.2699 0.790552 15.2052C0.725893 15.1406 0.689567 15.0529 0.689567 14.9614ZM18.7157 12.5333L15.4049 13.9443L9.95649 15.3062H4.1374V10.9671L6.18887 8.91566C6.34851 8.75503 6.53844 8.62767 6.74766 8.54097C6.95687 8.45427 7.18121 8.40994 7.40768 8.41055H11.7226C12.0884 8.41055 12.4392 8.55585 12.6978 8.81449C12.9565 9.07313 13.1018 9.42392 13.1018 9.78968C13.1018 10.1555 12.9565 10.5062 12.6978 10.7649C12.4392 11.0235 12.0884 11.1688 11.7226 11.1688H9.30916C9.21772 11.1688 9.13002 11.2051 9.06536 11.2698C9.0007 11.3345 8.96438 11.4222 8.96438 11.5136C8.96438 11.605 9.0007 11.6927 9.06536 11.7574C9.13002 11.8221 9.21772 11.8584 9.30916 11.8584H12.0674C12.0935 11.8585 12.1196 11.8556 12.145 11.8498L17.9201 10.5215H17.9339C18.1927 10.4529 18.4677 10.4823 18.7061 10.604C18.9446 10.7257 19.1297 10.9313 19.2258 11.1811C19.322 11.431 19.3225 11.7075 19.2273 11.9577C19.132 12.2079 18.9477 12.4141 18.7097 12.5367L18.7157 12.5333ZM13.7913 5.65228C14.0458 5.6528 14.299 5.61799 14.5438 5.54885C14.6612 6.08909 14.9381 6.58161 15.3388 6.96252C15.7395 7.34344 16.2454 7.59516 16.7908 7.68504C17.3363 7.77491 17.8962 7.6988 18.3979 7.46657C18.8996 7.23435 19.32 6.85672 19.6044 6.38267C19.8889 5.90863 20.0243 5.36005 19.9932 4.80809C19.962 4.25612 19.7657 3.72626 19.4298 3.28722C19.0938 2.84818 18.6336 2.52023 18.109 2.34591C17.5844 2.17158 17.0195 2.15894 16.4876 2.3096C16.3773 1.80096 16.1254 1.3339 15.7609 0.962372C15.3964 0.590848 14.9342 0.330026 14.4278 0.210041C13.9214 0.0900556 13.3913 0.115804 12.8989 0.28431C12.4064 0.452817 11.9717 0.757205 11.645 1.16231C11.3182 1.56741 11.1128 2.05669 11.0523 2.57363C10.9919 3.09056 11.0789 3.61406 11.3034 4.08362C11.5278 4.55319 11.8806 4.94966 12.3208 5.22724C12.7611 5.50482 13.2709 5.65217 13.7913 5.65228ZM19.3079 4.96271C19.3079 5.37186 19.1866 5.77183 18.9592 6.11202C18.7319 6.45222 18.4088 6.71737 18.0308 6.87395C17.6528 7.03052 17.2369 7.07149 16.8356 6.99167C16.4343 6.91184 16.0657 6.71482 15.7764 6.42551C15.4871 6.13619 15.2901 5.76759 15.2102 5.3663C15.1304 4.96501 15.1714 4.54906 15.328 4.17106C15.4845 3.79305 15.7497 3.46996 16.0899 3.24265C16.4301 3.01534 16.83 2.89401 17.2392 2.89401C17.7878 2.89401 18.314 3.11196 18.702 3.49992C19.0899 3.88788 19.3079 4.41406 19.3079 4.96271ZM13.7913 0.82531C14.2872 0.825258 14.7665 1.00329 15.1421 1.32698C15.5177 1.65067 15.7645 2.09848 15.8376 2.58888C15.4415 2.82195 15.11 3.1503 14.873 3.54409C14.6361 3.93788 14.5013 4.38464 14.4809 4.84376C14.1968 4.9445 13.8941 4.98194 13.5941 4.95345C13.294 4.92497 13.0037 4.83125 12.7437 4.67885C12.4836 4.52646 12.26 4.31907 12.0884 4.0712C11.9169 3.82333 11.8016 3.54098 11.7506 3.24389C11.6997 2.9468 11.7142 2.64216 11.7933 2.35128C11.8724 2.06041 12.0141 1.79033 12.2085 1.55995C12.4028 1.32957 12.6452 1.14446 12.9186 1.01756C13.1921 0.890661 13.4899 0.825047 13.7913 0.82531Z" fill="#999999"/>
</g>
</svg>
