<svg width="12" height="13" viewBox="0 0 12 13" fill="none" xmlns="http://www.w3.org/2000/svg">
<g id="vuesax/outline/location">
<g id="location">
<path id="Vector" d="M5.99994 7.23805C4.93494 7.23805 4.06494 6.37305 4.06494 5.30305C4.06494 4.23305 4.93494 3.37305 5.99994 3.37305C7.06494 3.37305 7.93494 4.23805 7.93494 5.30805C7.93494 6.37805 7.06494 7.23805 5.99994 7.23805ZM5.99994 4.12305C5.34994 4.12305 4.81494 4.65305 4.81494 5.30805C4.81494 5.96305 5.34494 6.49305 5.99994 6.49305C6.65494 6.49305 7.18494 5.96305 7.18494 5.30805C7.18494 4.65305 6.64994 4.12305 5.99994 4.12305Z" fill="#555555"/>
<path id="Vector_2" d="M5.99997 11.5323C5.25997 11.5323 4.51497 11.2523 3.93497 10.6973C2.45997 9.27734 0.829966 7.01234 1.44497 4.31734C1.99997 1.87234 4.13497 0.777344 5.99997 0.777344C5.99997 0.777344 5.99997 0.777344 6.00497 0.777344C7.86997 0.777344 10.005 1.87234 10.56 4.32234C11.17 7.01734 9.53997 9.27734 8.06497 10.6973C7.48497 11.2523 6.73997 11.5323 5.99997 11.5323ZM5.99997 1.52734C4.54497 1.52734 2.67497 2.30234 2.17997 4.48234C1.63997 6.83734 3.11997 8.86734 4.45997 10.1523C5.32497 10.9873 6.67997 10.9873 7.54497 10.1523C8.87997 8.86734 10.36 6.83734 9.82997 4.48234C9.32997 2.30234 7.45497 1.52734 5.99997 1.52734Z" fill="#555555"/>
</g>
</g>
</svg>
