<svg width="8" height="8" viewBox="0 0 8 8" fill="none" xmlns="http://www.w3.org/2000/svg">
<g id="vuesax/outline/bubble">
<g id="bubble">
<path id="Vector" d="M5.1967 4.33601C4.1167 4.33601 3.23669 3.45602 3.23669 2.37602C3.23669 1.29602 4.1167 0.416016 5.1967 0.416016C6.2767 0.416016 7.1567 1.29602 7.1567 2.37602C7.1567 3.45602 6.2767 4.33601 5.1967 4.33601ZM5.1967 0.916016C4.39336 0.916016 3.73669 1.56935 3.73669 2.37602C3.73669 3.18268 4.39003 3.83601 5.1967 3.83601C6.00336 3.83601 6.6567 3.18268 6.6567 2.37602C6.6567 1.56935 6.00003 0.916016 5.1967 0.916016Z" fill="#333333"/>
<path id="Vector_2" d="M2.12005 6.72912C1.41671 6.72912 0.843384 6.15578 0.843384 5.45245C0.843384 4.74912 1.41671 4.17578 2.12005 4.17578C2.82338 4.17578 3.39672 4.74912 3.39672 5.45245C3.39672 6.15578 2.82338 6.72912 2.12005 6.72912ZM2.12005 4.67578C1.69338 4.67578 1.34338 5.02245 1.34338 5.45245C1.34338 5.87912 1.69005 6.22912 2.12005 6.22912C2.54671 6.22912 2.89672 5.88245 2.89672 5.45245C2.89672 5.02578 2.54671 4.67578 2.12005 4.67578Z" fill="#333333"/>
<path id="Vector_3" d="M5.53998 7.58362C4.92998 7.58362 4.43665 7.08695 4.43665 6.48029C4.43665 5.87029 4.93331 5.37695 5.53998 5.37695C6.14664 5.37695 6.64331 5.87362 6.64331 6.48029C6.64331 7.08695 6.14664 7.58362 5.53998 7.58362ZM5.53998 5.87362C5.20664 5.87362 4.93665 6.14362 4.93665 6.47695C4.93665 6.81028 5.20664 7.08029 5.53998 7.08029C5.87331 7.08029 6.14331 6.81028 6.14331 6.47695C6.14331 6.14695 5.87331 5.87362 5.53998 5.87362Z" fill="#333333"/>
</g>
</g>
</svg>
