<svg width="22" height="19" viewBox="0 0 22 19" fill="none" xmlns="http://www.w3.org/2000/svg">
<g id="3-User">
<path id="Stroke-1" fill-rule="evenodd" clip-rule="evenodd" d="M10.9999 17.4769C7.83148 17.4769 5.12476 16.9976 5.12476 15.0783C5.12476 13.1591 7.81387 11.4883 10.9999 11.4883C14.1684 11.4883 16.8751 13.1434 16.8751 15.0617C16.8751 16.98 14.186 17.4769 10.9999 17.4769Z" stroke="#999999" stroke-width="1.5" stroke-linecap="round" stroke-linejoin="round"/>
<path id="Stroke-3" fill-rule="evenodd" clip-rule="evenodd" d="M11 8.75198C13.0797 8.75198 14.7662 7.06652 14.7662 4.98683C14.7662 2.90715 13.0797 1.2207 11 1.2207C8.92036 1.2207 7.2339 2.90715 7.2339 4.98683C7.22805 7.05869 8.9008 8.74513 10.9736 8.75198H11Z" stroke="#999999" stroke-width="1.5" stroke-linecap="round" stroke-linejoin="round"/>
<path id="Stroke-5" d="M17.2505 7.71831C18.4606 7.39452 19.3527 6.29109 19.3527 4.97735C19.3527 3.60687 18.3813 2.46236 17.0881 2.19824" stroke="#999999" stroke-width="1.5" stroke-linecap="round" stroke-linejoin="round"/>
<path id="Stroke-7" d="M17.8188 10.8018C19.5346 10.8018 21 11.9649 21 13.0037C21 13.6151 20.4943 14.2813 19.7273 14.4613" stroke="#999999" stroke-width="1.5" stroke-linecap="round" stroke-linejoin="round"/>
<path id="Stroke-9" d="M4.75038 7.71831C3.53935 7.39452 2.64722 6.29109 2.64722 4.97735C2.64722 3.60687 3.61956 2.46236 4.91178 2.19824" stroke="#999999" stroke-width="1.5" stroke-linecap="round" stroke-linejoin="round"/>
<path id="Stroke-11" d="M4.18116 10.8018C2.46537 10.8018 1 11.9649 1 13.0037C1 13.6151 1.50574 14.2813 2.27364 14.4613" stroke="#999999" stroke-width="1.5" stroke-linecap="round" stroke-linejoin="round"/>
</g>
</svg>
