<svg width="16" height="17" viewBox="0 0 16 17" fill="none" xmlns="http://www.w3.org/2000/svg">
<g id="vuesax/outline/add-circle">
<g id="add-circle">
<path id="Vector" d="M7.99967 15.6673C4.04634 15.6673 0.833008 12.454 0.833008 8.50065C0.833008 4.54732 4.04634 1.33398 7.99967 1.33398C11.953 1.33398 15.1663 4.54732 15.1663 8.50065C15.1663 12.454 11.953 15.6673 7.99967 15.6673ZM7.99967 2.33398C4.59967 2.33398 1.83301 5.10065 1.83301 8.50065C1.83301 11.9007 4.59967 14.6673 7.99967 14.6673C11.3997 14.6673 14.1663 11.9007 14.1663 8.50065C14.1663 5.10065 11.3997 2.33398 7.99967 2.33398Z" fill="#333333"/>
<path id="Vector_2" d="M10.6663 9H5.33301C5.05967 9 4.83301 8.77333 4.83301 8.5C4.83301 8.22667 5.05967 8 5.33301 8H10.6663C10.9397 8 11.1663 8.22667 11.1663 8.5C11.1663 8.77333 10.9397 9 10.6663 9Z" fill="#333333"/>
<path id="Vector_3" d="M8 11.6673C7.72667 11.6673 7.5 11.4407 7.5 11.1673V5.83398C7.5 5.56065 7.72667 5.33398 8 5.33398C8.27333 5.33398 8.5 5.56065 8.5 5.83398V11.1673C8.5 11.4407 8.27333 11.6673 8 11.6673Z" fill="#333333"/>
</g>
</g>
</svg>
