<svg width="16" height="17" viewBox="0 0 16 17" fill="none" xmlns="http://www.w3.org/2000/svg">
<g id="vuesax/outline/heart-tick">
<g id="heart-tick">
<path id="Vector" d="M11.4666 15.6676C10.1733 15.6676 8.95993 14.9809 8.29993 13.8676C7.95327 13.3076 7.7666 12.6409 7.7666 11.9676C7.7666 9.92757 9.4266 8.26758 11.4666 8.26758C13.5066 8.26758 15.1666 9.92757 15.1666 11.9676C15.1666 12.6476 14.9799 13.3076 14.6266 13.8809C13.9733 14.9809 12.7599 15.6676 11.4666 15.6676ZM11.4666 9.26758C9.97993 9.26758 8.7666 10.4809 8.7666 11.9676C8.7666 12.4609 8.89993 12.9409 9.15327 13.3542C9.6466 14.1809 10.5066 14.6676 11.4666 14.6676C12.4266 14.6676 13.2866 14.1809 13.7733 13.3609C14.0333 12.9409 14.1666 12.4609 14.1666 11.9676C14.1666 10.4809 12.9533 9.26758 11.4666 9.26758Z" fill="#333333"/>
<path id="Vector_2" d="M11.0067 13.2525C10.88 13.2525 10.7533 13.2059 10.6533 13.1059L9.86668 12.3192C9.67335 12.1259 9.67335 11.8059 9.86668 11.6125C10.06 11.4192 10.38 11.4192 10.5733 11.6125L11.02 12.0592L12.3733 10.8059C12.58 10.6192 12.8933 10.6325 13.08 10.8325C13.2667 11.0325 13.2533 11.3525 13.0533 11.5392L11.3467 13.1125C11.2533 13.2125 11.1267 13.2525 11.0067 13.2525Z" fill="#333333"/>
<path id="Vector_3" d="M7.99967 14.9331C7.79301 14.9331 7.58634 14.9064 7.41968 14.8464C5.71301 14.2664 0.833008 11.4398 0.833008 6.29309C0.833008 3.95976 2.71968 2.06641 5.03968 2.06641C6.14634 2.06641 7.21967 2.51309 7.99967 3.29309C8.77967 2.51309 9.85301 2.06641 10.9597 2.06641C13.2797 2.06641 15.1663 3.95976 15.1663 6.29309C15.1663 7.59309 14.853 8.83976 14.233 10.0064C14.1597 10.1464 14.0197 10.2464 13.8597 10.2664C13.6997 10.2864 13.5397 10.2331 13.4263 10.1131C12.9063 9.56641 12.213 9.25977 11.4663 9.25977C9.97968 9.25977 8.76634 10.4731 8.76634 11.9598C8.76634 12.6198 9.01301 13.2598 9.45967 13.7598C9.56634 13.8798 9.60634 14.0397 9.57301 14.1931C9.53968 14.3464 9.43301 14.4798 9.29301 14.5464C9.02634 14.6664 8.78634 14.7664 8.56634 14.8398C8.40634 14.9064 8.20634 14.9331 7.99967 14.9331ZM5.03968 3.06641C3.27301 3.06641 1.83301 4.51309 1.83301 6.29309C1.83301 10.8531 6.21301 13.3731 7.74634 13.8997C7.87301 13.9464 8.12634 13.9397 8.24634 13.8997C8.26634 13.8931 8.28634 13.8864 8.30634 13.8798C7.95301 13.3064 7.76634 12.6464 7.76634 11.9664C7.76634 9.92643 9.42634 8.26644 11.4663 8.26644C12.2397 8.26644 12.9997 8.5131 13.6263 8.96643C13.9863 8.1131 14.1663 7.21976 14.1663 6.29309C14.1663 4.51309 12.7263 3.06641 10.9597 3.06641C9.95967 3.06641 8.99967 3.54644 8.39967 4.35311C8.21301 4.60644 7.78634 4.60644 7.59968 4.35311C6.99968 3.54644 6.03968 3.06641 5.03968 3.06641Z" fill="#333333"/>
</g>
</g>
</svg>
