<svg width="16" height="17" viewBox="0 0 16 17" fill="none" xmlns="http://www.w3.org/2000/svg">
<g id="vuesax/outline/frame">
<g id="frame">
<path id="Vector" d="M8.10671 8.24732C8.08671 8.24732 8.07337 8.24732 8.05337 8.24732C8.02004 8.24065 7.97337 8.24065 7.93337 8.24732C6.00004 8.18732 4.54004 6.66732 4.54004 4.79398C4.54004 2.88732 6.09337 1.33398 8.00004 1.33398C9.90671 1.33398 11.46 2.88732 11.46 4.79398C11.4534 6.66732 9.98671 8.18732 8.12671 8.24732C8.12004 8.24732 8.11337 8.24732 8.10671 8.24732ZM8.00004 2.33398C6.64671 2.33398 5.54004 3.44065 5.54004 4.79398C5.54004 6.12732 6.58004 7.20065 7.90671 7.24732C7.94004 7.24065 8.03337 7.24065 8.12004 7.24732C9.42671 7.18732 10.4534 6.11398 10.46 4.79398C10.46 3.44065 9.35337 2.33398 8.00004 2.33398Z" fill="#333333"/>
<path id="Vector_2" d="M8.11307 15.5327C6.80641 15.5327 5.49307 15.1993 4.49974 14.5327C3.57307 13.9193 3.06641 13.0793 3.06641 12.166C3.06641 11.2527 3.57307 10.406 4.49974 9.78602C6.49974 8.45935 9.73974 8.45935 11.7264 9.78602C12.6464 10.3993 13.1597 11.2393 13.1597 12.1527C13.1597 13.066 12.6531 13.9127 11.7264 14.5327C10.7264 15.1993 9.41974 15.5327 8.11307 15.5327ZM5.05307 10.626C4.41307 11.0527 4.06641 11.5993 4.06641 12.1727C4.06641 12.7393 4.41974 13.286 5.05307 13.706C6.71307 14.8193 9.51307 14.8193 11.1731 13.706C11.8131 13.2793 12.1597 12.7327 12.1597 12.1593C12.1597 11.5927 11.8064 11.046 11.1731 10.626C9.51307 9.51935 6.71307 9.51935 5.05307 10.626Z" fill="#333333"/>
</g>
</g>
</svg>
