<svg width="16" height="17" viewBox="0 0 16 17" fill="none" xmlns="http://www.w3.org/2000/svg">
<g id="vuesax/outline/setting-4">
<g id="setting-4">
<path id="Vector" d="M14.667 5.33398H10.667C10.3937 5.33398 10.167 5.10732 10.167 4.83398C10.167 4.56065 10.3937 4.33398 10.667 4.33398H14.667C14.9403 4.33398 15.167 4.56065 15.167 4.83398C15.167 5.10732 14.9403 5.33398 14.667 5.33398Z" fill="#333333"/>
<path id="Vector_2" d="M3.99967 5.33398H1.33301C1.05967 5.33398 0.833008 5.10732 0.833008 4.83398C0.833008 4.56065 1.05967 4.33398 1.33301 4.33398H3.99967C4.27301 4.33398 4.49967 4.56065 4.49967 4.83398C4.49967 5.10732 4.27301 5.33398 3.99967 5.33398Z" fill="#333333"/>
<path id="Vector_3" d="M6.66634 7.66667C5.10634 7.66667 3.83301 6.39333 3.83301 4.83333C3.83301 3.27333 5.10634 2 6.66634 2C8.22634 2 9.49967 3.27333 9.49967 4.83333C9.49967 6.39333 8.22634 7.66667 6.66634 7.66667ZM6.66634 3C5.65301 3 4.83301 3.82 4.83301 4.83333C4.83301 5.84667 5.65301 6.66667 6.66634 6.66667C7.67967 6.66667 8.49967 5.84667 8.49967 4.83333C8.49967 3.82 7.67967 3 6.66634 3Z" fill="#333333"/>
<path id="Vector_4" d="M14.6667 12.666H12C11.7267 12.666 11.5 12.4393 11.5 12.166C11.5 11.8927 11.7267 11.666 12 11.666H14.6667C14.94 11.666 15.1667 11.8927 15.1667 12.166C15.1667 12.4393 14.94 12.666 14.6667 12.666Z" fill="#333333"/>
<path id="Vector_5" d="M5.33301 12.666H1.33301C1.05967 12.666 0.833008 12.4393 0.833008 12.166C0.833008 11.8927 1.05967 11.666 1.33301 11.666H5.33301C5.60634 11.666 5.83301 11.8927 5.83301 12.166C5.83301 12.4393 5.60634 12.666 5.33301 12.666Z" fill="#333333"/>
<path id="Vector_6" d="M9.33333 15.0007C7.77333 15.0007 6.5 13.7273 6.5 12.1673C6.5 10.6073 7.77333 9.33398 9.33333 9.33398C10.8933 9.33398 12.1667 10.6073 12.1667 12.1673C12.1667 13.7273 10.8933 15.0007 9.33333 15.0007ZM9.33333 10.334C8.32 10.334 7.5 11.154 7.5 12.1673C7.5 13.1807 8.32 14.0007 9.33333 14.0007C10.3467 14.0007 11.1667 13.1807 11.1667 12.1673C11.1667 11.154 10.3467 10.334 9.33333 10.334Z" fill="#333333"/>
</g>
</g>
</svg>
