<svg width="16" height="17" viewBox="0 0 16 17" fill="none" xmlns="http://www.w3.org/2000/svg">
<g id="vuesax/outline/logout">
<g id="logout">
<path id="Vector" d="M10.1597 15.3476H10.073C7.11302 15.3476 5.68635 14.181 5.43968 11.5676C5.41302 11.2943 5.61302 11.0476 5.89302 11.021C6.15968 10.9943 6.41302 11.201 6.43968 11.4743C6.63302 13.5676 7.61968 14.3476 10.0797 14.3476H10.1664C12.8797 14.3476 13.8397 13.3876 13.8397 10.6743V6.32763C13.8397 3.6143 12.8797 2.6543 10.1664 2.6543H10.0797C7.60635 2.6543 6.61968 3.44763 6.43968 5.58096C6.40635 5.8543 6.17302 6.06096 5.89302 6.0343C5.61302 6.0143 5.41302 5.76763 5.43302 5.4943C5.65968 2.84096 7.09302 1.6543 10.073 1.6543H10.1597C13.433 1.6543 14.833 3.0543 14.833 6.32763V10.6743C14.833 13.9476 13.433 15.3476 10.1597 15.3476Z" fill="#333333"/>
<path id="Vector_2" d="M9.99975 9H2.41309C2.13975 9 1.91309 8.77333 1.91309 8.5C1.91309 8.22667 2.13975 8 2.41309 8H9.99975C10.2731 8 10.4998 8.22667 10.4998 8.5C10.4998 8.77333 10.2731 9 9.99975 9Z" fill="#333333"/>
<path id="Vector_3" d="M3.89964 11.2326C3.77297 11.2326 3.6463 11.1859 3.5463 11.0859L1.31297 8.85258C1.11964 8.65925 1.11964 8.33925 1.31297 8.14591L3.5463 5.91258C3.73964 5.71924 4.05964 5.71924 4.25297 5.91258C4.4463 6.10591 4.4463 6.42591 4.25297 6.61925L2.37297 8.49925L4.25297 10.3792C4.4463 10.5726 4.4463 10.8926 4.25297 11.0859C4.15964 11.1859 4.0263 11.2326 3.89964 11.2326Z" fill="#333333"/>
</g>
</g>
</svg>
