<svg width="31" height="30" viewBox="0 0 31 30" fill="none" xmlns="http://www.w3.org/2000/svg">
<g id="ph:minus-circle">
<path id="Vector" d="M21.125 15C21.125 15.2486 21.0262 15.4871 20.8504 15.6629C20.6746 15.8387 20.4361 15.9375 20.1875 15.9375H10.8125C10.5639 15.9375 10.3254 15.8387 10.1496 15.6629C9.97378 15.4871 9.87501 15.2486 9.87501 15C9.87501 14.7514 9.97378 14.5129 10.1496 14.3371C10.3254 14.1613 10.5639 14.0625 10.8125 14.0625H20.1875C20.4361 14.0625 20.6746 14.1613 20.8504 14.3371C21.0262 14.5129 21.125 14.7514 21.125 15ZM27.6875 15C27.6875 17.4105 26.9727 19.7668 25.6335 21.771C24.2944 23.7752 22.3909 25.3373 20.164 26.2598C17.937 27.1822 15.4865 27.4236 13.1223 26.9533C10.7582 26.4831 8.58659 25.3223 6.88214 23.6179C5.17769 21.9134 4.01694 19.7418 3.54668 17.3777C3.07643 15.0135 3.31778 12.563 4.24022 10.336C5.16267 8.10907 6.72477 6.20564 8.72899 4.86646C10.7332 3.52728 13.0895 2.8125 15.5 2.8125C18.7313 2.81591 21.8292 4.10104 24.1141 6.3859C26.399 8.67076 27.6841 11.7687 27.6875 15ZM25.8125 15C25.8125 12.9604 25.2077 10.9666 24.0745 9.27068C22.9414 7.5748 21.3308 6.25302 19.4464 5.47249C17.5621 4.69196 15.4886 4.48774 13.4881 4.88565C11.4877 5.28356 9.6502 6.26573 8.20797 7.70796C6.76574 9.15019 5.78357 10.9877 5.38566 12.9881C4.98775 14.9886 5.19197 17.0621 5.9725 18.9464C6.75303 20.8308 8.07481 22.4414 9.77069 23.5745C11.4666 24.7077 13.4604 25.3125 15.5 25.3125C18.2341 25.3094 20.8553 24.2219 22.7886 22.2886C24.7219 20.3553 25.8094 17.7341 25.8125 15Z" fill="#054E12"/>
</g>
</svg>
