<svg width="31" height="30" viewBox="0 0 31 30" fill="none" xmlns="http://www.w3.org/2000/svg">
<g id="ph:plus-circle-fill">
<path id="Vector" d="M15.5 2.8125C13.0895 2.8125 10.7332 3.52728 8.72899 4.86646C6.72477 6.20564 5.16267 8.10907 4.24022 10.336C3.31778 12.563 3.07643 15.0135 3.54668 17.3777C4.01694 19.7418 5.17769 21.9134 6.88214 23.6179C8.58659 25.3223 10.7582 26.4831 13.1223 26.9533C15.4865 27.4236 17.937 27.1822 20.164 26.2598C22.3909 25.3373 24.2944 23.7752 25.6335 21.771C26.9727 19.7668 27.6875 17.4105 27.6875 15C27.6835 11.7689 26.3981 8.67132 24.1134 6.38659C21.8287 4.10186 18.7311 2.81653 15.5 2.8125ZM20.1875 15.9375H16.4375V19.6875C16.4375 19.9361 16.3387 20.1746 16.1629 20.3504C15.9871 20.5262 15.7486 20.625 15.5 20.625C15.2514 20.625 15.0129 20.5262 14.8371 20.3504C14.6613 20.1746 14.5625 19.9361 14.5625 19.6875V15.9375H10.8125C10.5639 15.9375 10.3254 15.8387 10.1496 15.6629C9.97378 15.4871 9.87501 15.2486 9.87501 15C9.87501 14.7514 9.97378 14.5129 10.1496 14.3371C10.3254 14.1613 10.5639 14.0625 10.8125 14.0625H14.5625V10.3125C14.5625 10.0639 14.6613 9.8254 14.8371 9.64959C15.0129 9.47377 15.2514 9.375 15.5 9.375C15.7486 9.375 15.9871 9.47377 16.1629 9.64959C16.3387 9.8254 16.4375 10.0639 16.4375 10.3125V14.0625H20.1875C20.4361 14.0625 20.6746 14.1613 20.8504 14.3371C21.0262 14.5129 21.125 14.7514 21.125 15C21.125 15.2486 21.0262 15.4871 20.8504 15.6629C20.6746 15.8387 20.4361 15.9375 20.1875 15.9375Z" fill="#054E12"/>
</g>
</svg>
