<svg width="20" height="25" viewBox="0 0 20 25" fill="none" xmlns="http://www.w3.org/2000/svg">
<path id="Vector" d="M19.5238 0.849609H3.33333C2.44928 0.849609 1.60143 1.2008 0.976311 1.82592C0.35119 2.45104 0 3.29889 0 4.18294V24.1829C0 24.3092 0.05017 24.4304 0.139473 24.5197C0.228776 24.609 0.349897 24.6591 0.47619 24.6591H17.619C17.7453 24.6591 17.8665 24.609 17.9558 24.5197C18.0451 24.4304 18.0952 24.3092 18.0952 24.1829C18.0952 24.0566 18.0451 23.9355 17.9558 23.8462C17.8665 23.7569 17.7453 23.7068 17.619 23.7068H0.952381V23.2306C0.952381 22.5991 1.20323 21.9935 1.64975 21.547C2.09626 21.1005 2.70187 20.8496 3.33333 20.8496H19.5238C19.6501 20.8496 19.7712 20.7994 19.8605 20.7101C19.9498 20.6208 20 20.4997 20 20.3734V1.3258C20 1.19951 19.9498 1.07839 19.8605 0.989082C19.7712 0.899779 19.6501 0.849609 19.5238 0.849609ZM8.57143 1.80199H15.2381V11.802L12.1893 9.51628C12.1069 9.45446 12.0066 9.42104 11.9036 9.42104C11.8005 9.42104 11.7003 9.45446 11.6179 9.51628L8.57143 11.802V1.80199ZM19.0476 19.8972H3.33333C2.88967 19.8971 2.45047 19.9857 2.04157 20.1578C1.63267 20.33 1.26234 20.5822 0.952381 20.8996V4.18294C0.952381 3.55147 1.20323 2.94587 1.64975 2.49936C2.09626 2.05284 2.70187 1.80199 3.33333 1.80199H7.61905V12.7544C7.61905 12.8428 7.64367 12.9295 7.69017 13.0047C7.73666 13.0799 7.80318 13.1407 7.88228 13.1803C7.96138 13.2198 8.04993 13.2366 8.138 13.2286C8.22608 13.2207 8.31021 13.1884 8.38095 13.1353L11.9048 10.4925L15.4298 13.1353C15.5122 13.1971 15.6124 13.2306 15.7155 13.2306C15.8418 13.2306 15.9629 13.1804 16.0522 13.0911C16.1415 13.0018 16.1917 12.8807 16.1917 12.7544V1.80199H19.0488L19.0476 19.8972Z" fill="#999999"/>
</svg>
