<svg width="22" height="19" viewBox="0 0 22 19" fill="none" xmlns="http://www.w3.org/2000/svg">
<g id="3-User">
<path id="Stroke-1" fill-rule="evenodd" clip-rule="evenodd" d="M10.9999 17.6273C7.83148 17.6273 5.12476 17.148 5.12476 15.2287C5.12476 13.3095 7.81387 11.6387 10.9999 11.6387C14.1684 11.6387 16.8751 13.2938 16.8751 15.2121C16.8751 17.1304 14.186 17.6273 10.9999 17.6273Z" stroke="#999999" stroke-width="1.5" stroke-linecap="round" stroke-linejoin="round"/>
<path id="Stroke-3" fill-rule="evenodd" clip-rule="evenodd" d="M11 8.90237C13.0797 8.90237 14.7662 7.21691 14.7662 5.13722C14.7662 3.05754 13.0797 1.37109 11 1.37109C8.92036 1.37109 7.2339 3.05754 7.2339 5.13722C7.22805 7.20908 8.9008 8.89552 10.9736 8.90237H11Z" stroke="#999999" stroke-width="1.5" stroke-linecap="round" stroke-linejoin="round"/>
<path id="Stroke-5" d="M17.2505 7.86772C18.4606 7.54393 19.3527 6.44051 19.3527 5.12677C19.3527 3.75629 18.3813 2.61177 17.0881 2.34766" stroke="#999999" stroke-width="1.5" stroke-linecap="round" stroke-linejoin="round"/>
<path id="Stroke-7" d="M17.8188 10.9531C19.5346 10.9531 21 12.1162 21 13.1551C21 13.7665 20.4943 14.4326 19.7273 14.6126" stroke="#999999" stroke-width="1.5" stroke-linecap="round" stroke-linejoin="round"/>
<path id="Stroke-9" d="M4.75038 7.86772C3.53935 7.54393 2.64722 6.44051 2.64722 5.12677C2.64722 3.75629 3.61956 2.61177 4.91178 2.34766" stroke="#999999" stroke-width="1.5" stroke-linecap="round" stroke-linejoin="round"/>
<path id="Stroke-11" d="M4.18116 10.9531C2.46537 10.9531 1 12.1162 1 13.1551C1 13.7665 1.50574 14.4326 2.27364 14.6126" stroke="#999999" stroke-width="1.5" stroke-linecap="round" stroke-linejoin="round"/>
</g>
</svg>
