<svg width="20" height="20" viewBox="0 0 20 20" fill="none" xmlns="http://www.w3.org/2000/svg">
<g id="vuesax/outline/award">
<g id="award">
<path id="Vector" d="M10 18.9578C9.50005 18.9578 9.00838 18.8411 8.60838 18.6161L4.66672 16.3411C3.03338 15.2411 2.92505 15.0411 2.92505 13.3161V9.18281C2.92505 7.45781 3.03338 7.25781 4.63338 6.18281L8.61671 3.88281C9.40838 3.42448 10.6 3.42448 11.3917 3.88281L15.3334 6.15781C16.9667 7.25781 17.075 7.45781 17.075 9.18281V13.3161C17.075 15.0411 16.9667 15.2411 15.3667 16.3161L11.3834 18.6161C10.9917 18.8495 10.4917 18.9578 10 18.9578ZM10 4.79115C9.71671 4.79115 9.43338 4.84948 9.23338 4.96615L5.29172 7.24115C4.17505 7.99948 4.17505 7.99948 4.17505 9.18281V13.3161C4.17505 14.4995 4.17505 14.4995 5.33338 15.2828L9.24171 17.5328C9.64171 17.7661 10.3667 17.7661 10.7667 17.5328L14.7084 15.2578C15.825 14.4995 15.825 14.4995 15.825 13.3161V9.18281C15.825 7.99948 15.825 7.99948 14.6667 7.21615L10.7584 4.96615C10.5667 4.84948 10.2834 4.79115 10 4.79115Z" fill="#4EAF00"/>
<path id="Vector_2" d="M14.5833 6.98464C14.2416 6.98464 13.9583 6.7013 13.9583 6.35964V4.16797C13.9583 2.8513 13.4 2.29297 12.0833 2.29297H7.91663C6.59996 2.29297 6.04163 2.8513 6.04163 4.16797V6.3013C6.04163 6.64297 5.75829 6.9263 5.41663 6.9263C5.07496 6.9263 4.79163 6.6513 4.79163 6.3013V4.16797C4.79163 2.1513 5.89996 1.04297 7.91663 1.04297H12.0833C14.1 1.04297 15.2083 2.1513 15.2083 4.16797V6.35964C15.2083 6.7013 14.925 6.98464 14.5833 6.98464Z" fill="#4EAF00"/>
<path id="Vector_3" d="M11.3584 14.6932C11.1834 14.6932 11 14.6599 10.8167 14.5849L10 14.2682L9.18337 14.5932C8.7417 14.7682 8.2917 14.7266 7.95837 14.4849C7.62504 14.2432 7.45004 13.8266 7.47504 13.3516L7.52503 12.4766L6.9667 11.8016C6.6667 11.4266 6.5667 10.9932 6.70004 10.5932C6.82504 10.2016 7.1667 9.90156 7.62503 9.7849L8.47504 9.56823L8.95003 8.82656C9.45837 8.02656 10.55 8.02656 11.0584 8.82656L11.5334 9.56823L12.3834 9.7849C12.8417 9.90156 13.1834 10.2016 13.3084 10.5932C13.4334 10.9849 13.3334 11.4266 13.0334 11.7932L12.475 12.4682L12.525 13.3432C12.55 13.8182 12.375 14.2266 12.0417 14.4766C11.8417 14.6182 11.6084 14.6932 11.3584 14.6932ZM7.93337 11.0016L8.4917 11.6766C8.68337 11.9016 8.7917 12.2599 8.77503 12.5516L8.72504 13.4266L9.5417 13.1016C9.8167 12.9932 10.1834 12.9932 10.4584 13.1016L11.275 13.4266L11.225 12.5516C11.2084 12.2599 11.3167 11.9099 11.5084 11.6766L12.0667 11.0016L11.2167 10.7849C10.9334 10.7099 10.6334 10.4932 10.475 10.2516L10.0084 9.51823L9.53337 10.2516C9.37503 10.5016 9.07504 10.7182 8.7917 10.7932L7.93337 11.0016Z" fill="#4EAF00"/>
</g>
</g>
</svg>
