<svg width="20" height="20" viewBox="0 0 20 20" fill="none" xmlns="http://www.w3.org/2000/svg">
<path d="M8.69159 15.3089C8.56659 15.3089 8.44992 15.2756 8.34159 15.2006C8.16659 15.0839 8.06659 14.8923 8.06659 14.6839C8.06659 14.5589 8.05826 14.4256 8.04159 14.2923C7.96659 13.7006 7.69992 13.1839 7.24992 12.7339C6.79992 12.2839 6.24159 12.0006 5.64159 11.9256C5.54159 11.9173 5.39992 11.9089 5.26659 11.9173C5.04992 11.9339 4.84992 11.8423 4.72492 11.6673C4.59992 11.5006 4.56659 11.2756 4.63326 11.0756C4.75826 10.7339 4.94159 10.4256 5.15826 10.1756L6.44159 8.55892C8.64992 5.80059 13.1249 2.48392 16.3999 1.16725C17.0916 0.900586 17.8333 1.05892 18.3416 1.55892C18.8666 2.08392 19.0249 2.83392 18.7499 3.51725C17.4333 6.80059 14.1249 11.2673 11.3666 13.4756L9.72492 14.7923C9.41659 15.0173 9.16659 15.1589 8.91659 15.2589C8.84992 15.2923 8.76659 15.3089 8.69159 15.3089ZM6.28326 10.7839C6.98326 10.9673 7.60826 11.3339 8.13326 11.8589C8.65826 12.3756 9.00826 12.9756 9.18326 13.6423L10.5916 12.5089C13.2083 10.4173 16.3499 6.17559 17.5916 3.05892C17.7166 2.75059 17.5416 2.53392 17.4583 2.45892C17.3999 2.40059 17.1833 2.21725 16.8499 2.34225C13.7499 3.59225 9.50826 6.73392 7.40826 9.35059L6.28326 10.7839Z" fill="#555555"/>
<path d="M3.39997 18.9595C2.77497 18.9595 2.17497 18.7095 1.72497 18.2595C1.2083 17.7429 0.958303 17.0262 1.04164 16.2929L1.26664 14.2429C1.4833 12.2095 3.14997 10.7012 5.21664 10.6595C5.37497 10.6512 5.5833 10.6595 5.77497 10.6762C6.6833 10.7929 7.49164 11.2012 8.14164 11.8512C8.7833 12.4929 9.16664 13.2595 9.2833 14.1179C9.3083 14.3012 9.32497 14.5012 9.32497 14.6762C9.32497 15.7762 8.89997 16.8012 8.1333 17.5762C7.49164 18.2095 6.66664 18.6012 5.7333 18.7179L3.67497 18.9429C3.5833 18.9512 3.49164 18.9595 3.39997 18.9595ZM5.37497 11.9179C5.34164 11.9179 5.29997 11.9179 5.26664 11.9179C4.0083 11.9429 2.67497 12.8012 2.5083 14.3845L2.2833 16.4345C2.24164 16.7845 2.36664 17.1262 2.6083 17.3762C2.84997 17.6179 3.19164 17.7429 3.5333 17.7012L5.5833 17.4762C6.22497 17.3929 6.79997 17.1262 7.2333 16.6929C7.76664 16.1595 8.06664 15.4429 8.06664 14.6762C8.06664 14.5512 8.0583 14.4179 8.04164 14.2845C7.96664 13.6929 7.69997 13.1762 7.24997 12.7262C6.79997 12.2762 6.24164 11.9929 5.64164 11.9179C5.57497 11.9179 5.47497 11.9179 5.37497 11.9179Z" fill="#555555"/>
<path d="M11.8667 12.6839C11.525 12.6839 11.2417 12.4005 11.2417 12.0589C11.2417 10.2255 9.75005 8.74219 7.92505 8.74219C7.58338 8.74219 7.30005 8.45885 7.30005 8.11719C7.30005 7.77552 7.57505 7.49219 7.91672 7.49219C10.4334 7.49219 12.4834 9.54219 12.4834 12.0589C12.4917 12.4089 12.2084 12.6839 11.8667 12.6839Z" fill="#555555"/>
</svg>
