<svg xmlns="http://www.w3.org/2000/svg" width="26" height="21" viewBox="0 0 26 21" fill="none">
<path d="M24.1591 13.0233C23.9005 12.8242 23.5994 12.6877 23.2793 12.6243C22.9592 12.561 22.6287 12.5726 22.3138 12.6582L17.2135 13.826C17.4337 13.4494 17.5497 13.021 17.5496 12.5847C17.5496 11.9263 17.2881 11.2949 16.8225 10.8294C16.357 10.3638 15.7256 10.1023 15.0672 10.1023H9.88921C9.50871 10.1012 9.13177 10.1756 8.78022 10.3212C8.42867 10.4668 8.1095 10.6807 7.8412 10.9505L5.37944 13.4122H2.24122C1.91203 13.4122 1.59632 13.543 1.36355 13.7758C1.13077 14.0085 1 14.3242 1 14.6534V18.7908C1 19.12 1.13077 19.4357 1.36355 19.6685C1.59632 19.9013 1.91203 20.0321 2.24122 20.0321H12.9985C13.0333 20.0323 13.0681 20.0281 13.1019 20.0196L19.7218 18.3647C19.7429 18.3592 19.7636 18.3523 19.7838 18.344L23.7992 16.6332L23.8219 16.6228C24.1454 16.4611 24.4225 16.2197 24.6269 15.9214C24.8314 15.623 24.9565 15.2775 24.9905 14.9175C25.0246 14.5574 24.9664 14.1946 24.8215 13.8632C24.6766 13.5318 24.4497 13.2428 24.1622 13.0233H24.1591ZM1.82748 18.7908V14.6534C1.82748 14.5437 1.87107 14.4385 1.94866 14.3609C2.02625 14.2833 2.13149 14.2397 2.24122 14.2397H5.1374V19.2046H2.24122C2.13149 19.2046 2.02625 19.161 1.94866 19.0834C1.87107 19.0058 1.82748 18.9006 1.82748 18.7908ZM23.4589 15.8771L19.4859 17.5703L12.9478 19.2046H5.96488V13.9977L8.42664 11.5359C8.61821 11.3431 8.84613 11.1903 9.09719 11.0863C9.34824 10.9822 9.61745 10.929 9.88921 10.9298H15.0672C15.5061 10.9298 15.927 11.1041 16.2374 11.4145C16.5478 11.7249 16.7221 12.1458 16.7221 12.5847C16.7221 13.0237 16.5478 13.4446 16.2374 13.755C15.927 14.0653 15.5061 14.2397 15.0672 14.2397H12.171C12.0613 14.2397 11.956 14.2833 11.8784 14.3609C11.8008 14.4385 11.7572 14.5437 11.7572 14.6534C11.7572 14.7632 11.8008 14.8684 11.8784 14.946C11.956 15.0236 12.0613 15.0672 12.171 15.0672H15.4809C15.5122 15.0673 15.5435 15.0638 15.574 15.0568L22.5042 13.4629H22.5207C22.8312 13.3806 23.1612 13.4158 23.4474 13.5619C23.7335 13.708 23.9556 13.9546 24.071 14.2544C24.1864 14.5543 24.187 14.8862 24.0727 15.1864C23.9584 15.4866 23.7372 15.7341 23.4516 15.8812L23.4589 15.8771ZM17.5496 7.61985C17.8549 7.62047 18.1588 7.5787 18.4526 7.49573C18.5934 8.14402 18.9258 8.73504 19.4066 9.19214C19.8874 9.64923 20.4944 9.9513 21.149 10.0592C21.8036 10.167 22.4755 10.0757 23.0775 9.797C23.6796 9.51832 24.184 9.06517 24.5253 8.49632C24.8666 7.92746 25.0292 7.26917 24.9918 6.60681C24.9544 5.94446 24.7189 5.30862 24.3157 4.78177C23.9126 4.25493 23.3604 3.86138 22.7308 3.6522C22.1013 3.44301 21.4234 3.42783 20.7851 3.60863C20.6527 2.99826 20.3504 2.43779 19.913 1.99196C19.4757 1.54613 18.9211 1.23314 18.3133 1.08916C17.7056 0.945176 17.0696 0.976074 16.4787 1.17828C15.8877 1.38049 15.3661 1.74576 14.974 2.23188C14.5819 2.718 14.3353 3.30514 14.2628 3.92546C14.1902 4.54579 14.2947 5.17398 14.564 5.73745C14.8334 6.30093 15.2567 6.7767 15.785 7.1098C16.3133 7.44289 16.9251 7.61972 17.5496 7.61985ZM24.1695 6.79237C24.1695 7.28335 24.0239 7.7633 23.7511 8.17154C23.4783 8.57977 23.0906 8.89795 22.637 9.08584C22.1834 9.27373 21.6843 9.32289 21.2027 9.22711C20.7212 9.13132 20.2788 8.89489 19.9317 8.54772C19.5845 8.20054 19.3481 7.75821 19.2523 7.27667C19.1565 6.79512 19.2057 6.29598 19.3935 5.84238C19.5814 5.38877 19.8996 5.00106 20.3078 4.72829C20.7161 4.45552 21.196 4.30992 21.687 4.30992C22.3454 4.30992 22.9768 4.57147 23.4424 5.03701C23.9079 5.50256 24.1695 6.13398 24.1695 6.79237ZM17.5496 1.82748C18.1446 1.82742 18.7198 2.04105 19.1705 2.42948C19.6212 2.81791 19.9174 3.35529 20.0052 3.94376C19.5299 4.22345 19.132 4.61747 18.8476 5.09002C18.5633 5.56257 18.4016 6.09867 18.3771 6.64963C18.0362 6.77051 17.673 6.81544 17.3129 6.78126C16.9528 6.74707 16.6045 6.63461 16.2924 6.45174C15.9803 6.26886 15.712 6.01999 15.5061 5.72255C15.3003 5.42511 15.1619 5.08628 15.1008 4.72977C15.0396 4.37327 15.0571 4.0077 15.152 3.65865C15.2469 3.3096 15.4169 2.98551 15.6502 2.70905C15.8834 2.4326 16.1743 2.21046 16.5024 2.05818C16.8305 1.9059 17.1879 1.82717 17.5496 1.82748Z" fill="#9747FF" stroke="#9747FF" stroke-width="0.5"/>
</svg>