<svg width="20" height="20" viewBox="0 0 20 20" fill="none" xmlns="http://www.w3.org/2000/svg">
<g id="vuesax/outline/location">
<g id="vuesax/outline/location_2">
<g id="location">
<path id="Vector" d="M9.9999 11.8089C8.2249 11.8089 6.7749 10.3672 6.7749 8.58385C6.7749 6.80052 8.2249 5.36719 9.9999 5.36719C11.7749 5.36719 13.2249 6.80885 13.2249 8.59219C13.2249 10.3755 11.7749 11.8089 9.9999 11.8089ZM9.9999 6.61719C8.91657 6.61719 8.0249 7.50052 8.0249 8.59219C8.0249 9.68385 8.90824 10.5672 9.9999 10.5672C11.0916 10.5672 11.9749 9.68385 11.9749 8.59219C11.9749 7.50052 11.0832 6.61719 9.9999 6.61719Z" fill="#555555"/>
<path id="Vector_2" d="M9.9999 18.9641C8.76657 18.9641 7.5249 18.4974 6.55824 17.5724C4.0999 15.2057 1.38324 11.4307 2.40824 6.93906C3.33324 2.86406 6.89157 1.03906 9.9999 1.03906C9.9999 1.03906 9.9999 1.03906 10.0082 1.03906C13.1166 1.03906 16.6749 2.86406 17.5999 6.9474C18.6166 11.4391 15.8999 15.2057 13.4416 17.5724C12.4749 18.4974 11.2332 18.9641 9.9999 18.9641ZM9.9999 2.28906C7.5749 2.28906 4.45824 3.58073 3.63324 7.21406C2.73324 11.1391 5.1999 14.5224 7.43324 16.6641C8.8749 18.0557 11.1332 18.0557 12.5749 16.6641C14.7999 14.5224 17.2666 11.1391 16.3832 7.21406C15.5499 3.58073 12.4249 2.28906 9.9999 2.28906Z" fill="#555555"/>
</g>
</g>
</g>
</svg>
