<svg width="30" height="30" viewBox="0 0 30 30" fill="none" xmlns="http://www.w3.org/2000/svg">
<path d="M22.5937 1.94531L27.8099 7.38281V28.0603H8.32397V28.1278H27.8765V7.45125L22.5937 1.94531Z" fill="#909090"/>
<path d="M22.5291 1.875H8.25757V28.0575H27.8101V7.38094L22.5291 1.875Z" fill="#F4F4F4"/>
<path d="M8.11416 3.28125H2.12354V9.68156H20.9673V3.28125H8.11416Z" fill="#7A7B7C"/>
<path d="M21.0675 9.57297H2.24536V3.16797H21.0675V9.57297Z" fill="#DD2025"/>
<path d="M8.4863 4.25248H7.26099V8.75248H8.22474V7.23466L8.43755 7.24685C8.64433 7.24329 8.84918 7.20625 9.04411 7.13716C9.21502 7.07838 9.37225 6.98558 9.5063 6.86435C9.6427 6.74887 9.75025 6.60312 9.82036 6.43873C9.91439 6.16544 9.94797 5.87501 9.9188 5.58748C9.91294 5.38208 9.87693 5.17865 9.81192 4.98373C9.75274 4.84301 9.66492 4.71616 9.55403 4.61125C9.44314 4.50634 9.31163 4.42566 9.16786 4.37435C9.04356 4.32935 8.91513 4.29669 8.78442 4.27685C8.68545 4.26158 8.5855 4.25343 8.48536 4.25248M8.30817 6.4031H8.22474V5.0156H8.40567C8.48553 5.00984 8.56566 5.0221 8.64014 5.05147C8.71462 5.08084 8.78155 5.12658 8.83599 5.18529C8.94879 5.33624 9.00904 5.51998 9.00755 5.70841C9.00755 5.93904 9.00755 6.1481 8.79942 6.29529C8.64949 6.37776 8.47882 6.41582 8.30817 6.4031ZM11.7497 4.24029C11.6457 4.24029 11.5444 4.24779 11.4732 4.2506L11.25 4.25623H10.5188V8.75623H11.3794C11.7083 8.76524 12.0358 8.7095 12.3432 8.59216C12.5906 8.49403 12.8097 8.33583 12.9807 8.13185C13.147 7.92603 13.2663 7.68639 13.3304 7.42966C13.404 7.13892 13.4399 6.8399 13.4372 6.53998C13.4554 6.18575 13.428 5.83065 13.3557 5.48341C13.287 5.22782 13.1585 4.99225 12.9807 4.79623C12.8412 4.63794 12.6704 4.51026 12.4791 4.42123C12.3148 4.34521 12.142 4.28919 11.9644 4.25435C11.8938 4.24268 11.8223 4.23735 11.7507 4.23841M11.58 7.92935H11.4863V5.05685H11.4985C11.6918 5.03461 11.8873 5.06949 12.061 5.15716C12.1882 5.25872 12.2918 5.38666 12.3647 5.53216C12.4434 5.68529 12.4888 5.85336 12.4979 6.02529C12.5063 6.23154 12.4979 6.40029 12.4979 6.53998C12.5017 6.70089 12.4913 6.86182 12.4669 7.02091C12.438 7.18425 12.3846 7.34229 12.3085 7.48966C12.2223 7.62668 12.1059 7.74214 11.9682 7.82716C11.8525 7.90197 11.7155 7.93688 11.5782 7.92654M16.3407 4.25623H14.0625V8.75623H15.0263V6.97123H16.245V6.13498H15.0263V5.09248H16.3388V4.25623" fill="#464648"/>
<path d="M20.4196 18.9892C20.4196 18.9892 23.4084 18.4473 23.4084 19.4682C23.4084 20.4892 21.5568 20.0739 20.4196 18.9892ZM18.21 19.067C17.7351 19.1719 17.2723 19.3255 16.829 19.5254L17.204 18.6817C17.579 17.8379 17.9681 16.6876 17.9681 16.6876C18.4156 17.4407 18.9362 18.1479 19.5225 18.7989C19.0803 18.8648 18.6422 18.9549 18.21 19.0689V19.067ZM17.0268 12.9732C17.0268 12.0835 17.3146 11.8407 17.5387 11.8407C17.7628 11.8407 18.015 11.9485 18.0234 12.721C17.9504 13.4978 17.7877 14.2635 17.5387 15.0029C17.1976 14.3821 17.021 13.6844 17.0259 12.976L17.0268 12.9732ZM12.6684 22.832C11.7515 22.2835 14.5912 20.5951 15.1059 20.5407C15.1031 20.5417 13.6284 23.4057 12.6684 22.832ZM24.2812 19.5892C24.2718 19.4954 24.1875 18.4576 22.3406 18.5017C21.5708 18.4893 20.8013 18.5435 20.0409 18.6639C19.3043 17.9217 18.6699 17.0847 18.1546 16.1748C18.4793 15.2367 18.6757 14.2592 18.7387 13.2685C18.7115 12.1435 18.4425 11.4985 17.58 11.5079C16.7175 11.5173 16.5918 12.272 16.7053 13.3951C16.8164 14.1498 17.026 14.8867 17.3287 15.587C17.3287 15.587 16.9303 16.8273 16.4034 18.061C15.8765 19.2948 15.5165 19.9417 15.5165 19.9417C14.6003 20.2399 13.7378 20.683 12.9618 21.2542C12.1893 21.9732 11.8753 22.5254 12.2821 23.0776C12.6328 23.5539 13.86 23.6617 14.9568 22.2245C15.5396 21.4822 16.0721 20.7017 16.5506 19.8882C16.5506 19.8882 18.2231 19.4298 18.7434 19.3042C19.2637 19.1785 19.8928 19.0792 19.8928 19.0792C19.8928 19.0792 21.42 20.6157 22.8928 20.5614C24.3656 20.507 24.2943 19.681 24.285 19.591" fill="#DD2025"/>
<path d="M22.4568 1.94531V7.45125H27.7377L22.4568 1.94531Z" fill="#909090"/>
<path d="M22.5291 1.875V7.38094H27.81L22.5291 1.875Z" fill="#F4F4F4"/>
<path d="M8.41403 4.17826H7.18872V8.67826H8.15622V7.16138L8.36997 7.17357C8.57676 7.17001 8.7816 7.13297 8.97653 7.06388C9.14743 7.00508 9.30465 6.91227 9.43872 6.79107C9.5741 6.67528 9.68067 6.52956 9.74997 6.36545C9.844 6.09216 9.87758 5.80173 9.84841 5.5142C9.84255 5.3088 9.80654 5.10537 9.74153 4.91045C9.68235 4.76973 9.59452 4.64288 9.48364 4.53797C9.37275 4.43306 9.24124 4.35238 9.09747 4.30107C8.97259 4.25563 8.84353 4.22266 8.71216 4.20263C8.61318 4.18736 8.51324 4.17922 8.4131 4.17826M8.23591 6.32888H8.15247V4.94138H8.33435C8.4142 4.93562 8.49433 4.94788 8.56881 4.97725C8.6433 5.00662 8.71023 5.05236 8.76466 5.11107C8.87746 5.26202 8.93771 5.44576 8.93622 5.6342C8.93622 5.86482 8.93622 6.07388 8.7281 6.22107C8.57816 6.30354 8.40749 6.34067 8.23685 6.32795M11.6775 4.16607C11.5734 4.16607 11.4722 4.17357 11.4009 4.17638L11.1806 4.18201H10.4493V8.68201H11.31C11.6389 8.69102 11.9663 8.63528 12.2737 8.51795C12.5211 8.41981 12.7402 8.26161 12.9112 8.05763C13.0775 7.85181 13.1968 7.61217 13.2609 7.35545C13.3346 7.0647 13.3705 6.76568 13.3678 6.46576C13.386 6.11153 13.3586 5.75643 13.2862 5.4092C13.2176 5.1536 13.089 4.91803 12.9112 4.72201C12.7717 4.56372 12.6009 4.43604 12.4097 4.34701C12.2454 4.27099 12.0726 4.21497 11.895 4.18013C11.8243 4.16847 11.7528 4.16313 11.6812 4.1642M11.5106 7.85513H11.4168V4.98263H11.429C11.6223 4.96039 11.8179 4.99527 11.9915 5.08295C12.1187 5.1845 12.2224 5.31244 12.2953 5.45795C12.374 5.61107 12.4194 5.77914 12.4284 5.95107C12.4368 6.15732 12.4284 6.32607 12.4284 6.46576C12.4322 6.62667 12.4219 6.7876 12.3975 6.9467C12.3686 7.11003 12.3152 7.26807 12.239 7.41545C12.1529 7.55247 12.0365 7.66792 11.8987 7.75295C11.7831 7.82776 11.6461 7.86266 11.5087 7.85232M16.2684 4.18201H13.9903V8.68201H14.954V6.89701H16.1728V6.06076H14.954V5.01826H16.2665V4.18201" fill="white"/>
</svg>
