<svg width="50" height="50" viewBox="0 0 50 50" fill="none" xmlns="http://www.w3.org/2000/svg">
<circle cx="25" cy="25" r="24" fill="#DBEBDD" stroke="#3B8004" stroke-width="2"/>
<path d="M30.504 32.564L30.504 35L20.736 35L20.736 32.564L24.192 32.564L24.192 23.036C24.192 22.828 24.196 22.616 24.204 22.4C24.212 22.184 24.224 21.964 24.24 21.74L21.96 23.636C21.8 23.756 21.644 23.832 21.492 23.864C21.34 23.896 21.196 23.9 21.06 23.876C20.924 23.844 20.804 23.796 20.7 23.732C20.596 23.66 20.516 23.588 20.46 23.516L19.416 22.112L24.768 17.576L27.492 17.576L27.492 32.564L30.504 32.564Z" fill="#3B8004"/>
</svg>
