<svg width="50" height="50" viewBox="0 0 50 50" fill="none" xmlns="http://www.w3.org/2000/svg">
<circle cx="25" cy="25" r="24" fill="#DBEBDD" stroke="#3B8004" stroke-width="2"/>
<path d="M29.748 31.964C30.108 31.964 30.388 32.064 30.588 32.264C30.796 32.464 30.9 32.728 30.9 33.056L30.9 35L18.828 35L18.828 33.92C18.828 33.712 18.872 33.488 18.96 33.248C19.048 33 19.196 32.776 19.404 32.576L24.564 27.404C25.004 26.964 25.392 26.544 25.728 26.144C26.064 25.736 26.344 25.34 26.568 24.956C26.792 24.564 26.96 24.168 27.072 23.768C27.184 23.368 27.24 22.948 27.24 22.508C27.24 21.732 27.04 21.144 26.64 20.744C26.24 20.336 25.676 20.132 24.948 20.132C24.628 20.132 24.332 20.18 24.06 20.276C23.796 20.364 23.556 20.488 23.34 20.648C23.132 20.808 22.952 20.996 22.8 21.212C22.648 21.428 22.536 21.664 22.464 21.92C22.32 22.32 22.124 22.588 21.876 22.724C21.636 22.852 21.292 22.88 20.844 22.808L19.092 22.496C19.22 21.648 19.46 20.904 19.812 20.264C20.164 19.624 20.604 19.092 21.132 18.668C21.66 18.244 22.264 17.928 22.944 17.72C23.624 17.504 24.356 17.396 25.14 17.396C25.964 17.396 26.712 17.52 27.384 17.768C28.064 18.008 28.644 18.348 29.124 18.788C29.604 19.22 29.976 19.744 30.24 20.36C30.504 20.976 30.636 21.656 30.636 22.4C30.636 23.04 30.544 23.632 30.36 24.176C30.176 24.72 29.924 25.24 29.604 25.736C29.292 26.224 28.928 26.7 28.512 27.164C28.096 27.628 27.656 28.096 27.192 28.568L23.496 32.348C23.904 32.228 24.308 32.136 24.708 32.072C25.108 32 25.484 31.964 25.836 31.964L29.748 31.964Z" fill="#3B8004"/>
</svg>
