<svg width="50" height="50" viewBox="0 0 50 50" fill="none" xmlns="http://www.w3.org/2000/svg">
<circle cx="25" cy="25" r="24" fill="#DBEBDD" stroke="#3B8004" stroke-width="2"/>
<path d="M19.188 22.496C19.316 21.648 19.556 20.904 19.908 20.264C20.26 19.624 20.7 19.092 21.228 18.668C21.756 18.244 22.356 17.928 23.028 17.72C23.708 17.504 24.44 17.396 25.224 17.396C26.056 17.396 26.8 17.516 27.456 17.756C28.12 17.988 28.68 18.308 29.136 18.716C29.592 19.124 29.94 19.6 30.18 20.144C30.428 20.688 30.552 21.272 30.552 21.896C30.552 22.448 30.492 22.936 30.372 23.36C30.26 23.776 30.088 24.14 29.856 24.452C29.632 24.764 29.352 25.028 29.016 25.244C28.688 25.46 28.308 25.64 27.876 25.784C29.876 26.44 30.876 27.772 30.876 29.78C30.876 30.668 30.712 31.452 30.384 32.132C30.056 32.804 29.616 33.368 29.064 33.824C28.512 34.28 27.868 34.624 27.132 34.856C26.404 35.08 25.64 35.192 24.84 35.192C23.992 35.192 23.244 35.096 22.596 34.904C21.948 34.712 21.376 34.424 20.88 34.04C20.392 33.656 19.972 33.176 19.62 32.6C19.268 32.016 18.96 31.336 18.696 30.56L20.16 29.96C20.544 29.8 20.9 29.756 21.228 29.828C21.564 29.9 21.804 30.076 21.948 30.356C22.108 30.66 22.276 30.94 22.452 31.196C22.636 31.452 22.84 31.676 23.064 31.868C23.288 32.052 23.54 32.196 23.82 32.3C24.108 32.404 24.436 32.456 24.804 32.456C25.268 32.456 25.672 32.38 26.016 32.228C26.36 32.076 26.648 31.88 26.88 31.64C27.112 31.392 27.284 31.116 27.396 30.812C27.516 30.5 27.576 30.192 27.576 29.888C27.576 29.488 27.54 29.128 27.468 28.808C27.396 28.48 27.228 28.204 26.964 27.98C26.708 27.748 26.324 27.572 25.812 27.452C25.308 27.324 24.62 27.26 23.748 27.26L23.748 24.932C24.476 24.932 25.072 24.872 25.536 24.752C26 24.632 26.364 24.464 26.628 24.248C26.892 24.032 27.072 23.772 27.168 23.468C27.272 23.164 27.324 22.832 27.324 22.472C27.324 21.712 27.124 21.132 26.724 20.732C26.332 20.332 25.772 20.132 25.044 20.132C24.724 20.132 24.428 20.18 24.156 20.276C23.892 20.364 23.652 20.488 23.436 20.648C23.228 20.808 23.048 20.996 22.896 21.212C22.744 21.428 22.632 21.664 22.56 21.92C22.408 22.32 22.212 22.588 21.972 22.724C21.732 22.852 21.384 22.88 20.928 22.808L19.188 22.496Z" fill="#3B8004"/>
</svg>
