<svg width="50" height="50" viewBox="0 0 50 50" fill="none" xmlns="http://www.w3.org/2000/svg">
<circle cx="25" cy="25" r="24" fill="#DBEBDD" stroke="#3B8004" stroke-width="2"/>
<path d="M26.448 28.352L26.448 23.168C26.448 22.896 26.456 22.608 26.472 22.304C26.496 21.992 26.528 21.668 26.568 21.332L21.528 28.352L26.448 28.352ZM31.344 28.352L31.344 30.224C31.344 30.4 31.284 30.552 31.164 30.68C31.052 30.8 30.892 30.86 30.684 30.86L29.328 30.86L29.328 35L26.448 35L26.448 30.86L19.26 30.86C19.052 30.86 18.86 30.796 18.684 30.668C18.516 30.54 18.412 30.372 18.372 30.164L18.024 28.508L26.184 17.576L29.328 17.576L29.328 28.352L31.344 28.352Z" fill="#3B8004"/>
</svg>
