<svg width="90" height="90" viewBox="0 0 90 90" fill="none" xmlns="http://www.w3.org/2000/svg">
<circle cx="45" cy="45" r="42" fill="#DAECDD" stroke="white" stroke-width="5"/>
<g clip-path="url(#clip0_1771_1487)">
<path d="M56.9766 40.5987C55.4016 40.5987 44.6438 40.7698 44.6438 40.7698C43.7883 40.7698 43.6289 40.7932 43.8656 40.4791C44.1023 40.1651 45.007 39.8557 45.607 37.6244C46.057 35.9557 45.3703 33.8604 44.3531 33.319C43.9008 33.0776 42.968 33.0377 42.6211 33.8182C42.2883 34.5659 42.2531 36.0705 41.2992 37.3268C40.132 38.8643 39.1641 38.9229 37.3617 39.9119C35.9227 40.6994 34.8141 42.6307 34.0172 43.0455C33.4406 43.3479 32.7 43.3338 31.9594 43.301C31.6758 43.2893 31.4203 43.4768 31.3523 43.7534C31.1883 44.4143 30.9375 45.7971 30.9375 48.108C30.9375 50.3885 31.1813 51.7643 31.3477 52.4369C31.418 52.7229 31.6852 52.9151 31.9781 52.8869C32.7609 52.8143 33.5953 52.7088 34.1883 52.9385C35.0039 53.2526 36.1383 54.2908 37.568 55.1369C40.9148 57.1174 44.4305 56.8971 46.4461 56.7284C48.0047 56.5994 49.9641 55.6291 50.257 54.3471C50.407 53.6908 50.2383 53.2291 49.8398 52.7487C49.7484 52.6362 49.8281 52.4674 49.9664 52.4229C50.5617 52.2307 51.4805 51.8229 51.5602 50.6065C51.6258 49.6104 51.0422 49.1885 50.7258 48.8369C50.632 48.7315 50.7094 48.6213 50.843 48.5744C51.4125 48.3799 52.4039 47.6674 52.3688 46.5776C52.3289 45.319 51.3703 44.8432 50.6672 44.6205C50.5406 44.5807 51.3891 44.2924 51.5227 44.283C51.5227 44.283 55.0102 44.0088 56.5102 43.7604C57.9328 43.526 59.2594 43.1487 59.018 41.7682C58.9219 41.1869 58.5539 40.5987 56.9766 40.5987Z" fill="#FFBA88"/>
<path d="M47.5851 44.3061C48.1147 44.6741 49.1108 45.3022 49.1647 46.4272C49.2163 47.5124 48.3397 47.9038 48.2437 48.4522C48.1147 49.1999 48.6468 49.2866 48.5905 50.3249C48.5366 51.321 47.864 51.5155 47.7679 52.2186C47.7069 52.6663 48.1897 53.0624 48.103 54.1452C48.0679 54.5952 47.6155 55.5303 46.7718 55.8772C46.153 56.1303 47.2757 56.6108 47.6038 56.5171C48.6679 56.2124 49.9616 55.5421 50.2522 54.3725L50.2593 54.3397C50.4093 53.6835 50.2405 53.2218 49.8421 52.7413C49.7507 52.6288 49.8304 52.46 49.9687 52.4155C50.564 52.2233 51.4827 51.8155 51.5624 50.5991C51.628 49.603 51.0444 49.1811 50.728 48.8296C50.6343 48.7241 50.7116 48.6139 50.8452 48.5671C51.4147 48.3725 52.4062 47.66 52.371 46.5702C52.3312 45.3116 51.3726 44.8358 50.6694 44.6132C50.6226 44.6038 48.1968 44.1514 47.5851 44.3061Z" fill="#EEA168"/>
<path d="M43.6617 40.5235C43.575 40.1579 43.9148 39.8532 44.0859 39.661C44.625 39.0634 44.9672 38.3673 45.1453 37.8493C45.7945 35.9556 45.1992 34.5142 44.8406 33.7056C44.8406 33.7056 46.65 35.4235 45.9563 38.2384C45.7219 39.1876 45.2836 39.8603 44.7188 40.4626C44.2477 40.9665 43.7414 40.8634 43.6617 40.5235ZM46.4484 56.7259C47.7398 56.6181 49.2609 56.004 49.9313 55.0759C49.9992 54.9821 49.882 54.8673 49.793 54.9423C49.3148 55.3407 48.3844 55.8587 46.6922 55.9618C42.6891 56.2056 40.1672 55.861 37.9266 54.5345C37.3102 54.1688 36.7383 53.7587 36.232 53.3954C35.557 52.9103 35.1234 52.6173 34.582 52.4321C33.1055 51.9282 31.9805 52.8868 31.9805 52.8868C32.7633 52.8142 33.5977 52.7087 34.1906 52.9384C35.0062 53.2524 36.1406 54.2907 37.5703 55.1368C40.9148 57.1173 44.4305 56.8946 46.4484 56.7259ZM49.4203 44.822C48.0398 44.904 47.4234 44.3181 47.4234 44.3181C47.4234 44.3181 47.7797 44.1071 49.275 43.8962C49.275 43.8962 56.3742 43.3853 57.4711 43.2563C58.8586 43.0946 59.0531 42.0634 59.0531 42.0634C59.0531 42.0634 59.3109 43.6642 57.3539 43.9806C55.8938 44.2196 50.8008 44.7399 49.4203 44.822ZM48.6234 51.7899C48.0609 51.7478 47.8266 51.8931 47.768 52.2071C47.7094 52.5212 48.0492 52.6712 48.6891 52.6501C50.3062 52.6009 51.4125 51.9306 51.5086 50.9134C51.5086 50.9134 50.9227 51.961 48.6234 51.7899ZM49.0875 47.972C48.5813 47.9532 48.2906 48.1431 48.2508 48.5087C48.2109 48.8743 48.6047 49.0009 48.982 48.9962C50.6063 48.9751 52.2633 48.1524 52.3523 46.8774C52.3523 46.8774 51.7313 48.0751 49.0875 47.972Z" fill="#D58555"/>
<path d="M56.9766 40.5987C55.4016 40.5987 44.6438 40.7698 44.6438 40.7698C43.7883 40.7698 43.6289 40.7932 43.8656 40.4791C44.1023 40.1651 45.007 39.8557 45.607 37.6244C46.057 35.9557 45.3703 33.8604 44.3531 33.319C43.9008 33.0776 42.968 33.0377 42.6211 33.8182C42.2883 34.5659 42.2531 36.0705 41.2992 37.3268C40.132 38.8643 39.1641 38.9229 37.3617 39.9119C35.9227 40.6994 34.8141 42.6307 34.0172 43.0455C33.4406 43.3479 32.7 43.3338 31.9594 43.301C31.6758 43.2893 31.4203 43.4768 31.3523 43.7534C31.1883 44.4143 30.9375 45.7971 30.9375 48.108C30.9375 50.3885 31.1813 51.7643 31.3477 52.4369C31.418 52.7229 31.6852 52.9151 31.9781 52.8869C32.7609 52.8143 33.5953 52.7088 34.1883 52.9385C35.0039 53.2526 36.1383 54.2908 37.568 55.1369C40.9148 57.1174 44.4305 56.8971 46.4461 56.7284C48.0047 56.5994 49.9641 55.6291 50.257 54.3471C50.407 53.6908 50.2383 53.2291 49.8398 52.7487C49.7484 52.6362 49.8281 52.4674 49.9664 52.4229C50.5617 52.2307 51.4805 51.8229 51.5602 50.6065C51.6258 49.6104 51.0422 49.1885 50.7258 48.8369C50.632 48.7315 50.7094 48.6213 50.843 48.5744C51.4125 48.3799 52.4039 47.6674 52.3688 46.5776C52.3289 45.319 51.3703 44.8432 50.6672 44.6205C50.5406 44.5807 51.3891 44.2924 51.5227 44.283C51.5227 44.283 55.0102 44.0088 56.5102 43.7604C57.9328 43.526 59.2594 43.1487 59.018 41.7682C58.9219 41.1869 58.5539 40.5987 56.9766 40.5987Z" fill="#FFBA88"/>
<path d="M47.5851 44.3061C48.1147 44.6741 49.1108 45.3022 49.1647 46.4272C49.2163 47.5124 48.3397 47.9038 48.2437 48.4522C48.1147 49.1999 48.6468 49.2866 48.5905 50.3249C48.5366 51.321 47.864 51.5155 47.7679 52.2186C47.7069 52.6663 48.1897 53.0624 48.103 54.1452C48.0679 54.5952 47.6155 55.5303 46.7718 55.8772C46.153 56.1303 47.2757 56.6108 47.6038 56.5171C48.6679 56.2124 49.9616 55.5421 50.2522 54.3725L50.2593 54.3397C50.4093 53.6835 50.2405 53.2218 49.8421 52.7413C49.7507 52.6288 49.8304 52.46 49.9687 52.4155C50.564 52.2233 51.4827 51.8155 51.5624 50.5991C51.628 49.603 51.0444 49.1811 50.728 48.8296C50.6343 48.7241 50.7116 48.6139 50.8452 48.5671C51.4147 48.3725 52.4062 47.66 52.371 46.5702C52.3312 45.3116 51.3726 44.8358 50.6694 44.6132C50.6226 44.6038 48.1968 44.1514 47.5851 44.3061Z" fill="#EEA168"/>
<path d="M43.6617 40.5235C43.575 40.1579 43.9148 39.8532 44.0859 39.661C44.625 39.0634 44.9672 38.3673 45.1453 37.8493C45.7945 35.9556 45.1992 34.5142 44.8406 33.7056C44.8406 33.7056 46.65 35.4235 45.9563 38.2384C45.7219 39.1876 45.2836 39.8603 44.7188 40.4626C44.2477 40.9665 43.7414 40.8634 43.6617 40.5235ZM46.4484 56.7259C47.7398 56.6181 49.2609 56.004 49.9313 55.0759C49.9992 54.9821 49.882 54.8673 49.793 54.9423C49.3148 55.3407 48.3844 55.8587 46.6922 55.9618C42.6891 56.2056 40.1672 55.861 37.9266 54.5345C37.3102 54.1688 36.7383 53.7587 36.232 53.3954C35.557 52.9103 35.1234 52.6173 34.582 52.4321C33.1055 51.9282 31.9805 52.8868 31.9805 52.8868C32.7633 52.8142 33.5977 52.7087 34.1906 52.9384C35.0062 53.2524 36.1406 54.2907 37.5703 55.1368C40.9148 57.1173 44.4305 56.8946 46.4484 56.7259ZM49.4203 44.822C48.0398 44.904 47.4234 44.3181 47.4234 44.3181C47.4234 44.3181 47.7797 44.1071 49.275 43.8962C49.275 43.8962 56.3742 43.3853 57.4711 43.2563C58.8586 43.0946 59.0531 42.0634 59.0531 42.0634C59.0531 42.0634 59.3109 43.6642 57.3539 43.9806C55.8938 44.2196 50.8008 44.7399 49.4203 44.822ZM48.6234 51.7899C48.0609 51.7478 47.8266 51.8931 47.768 52.2071C47.7094 52.5212 48.0492 52.6712 48.6891 52.6501C50.3062 52.6009 51.4125 51.9306 51.5086 50.9134C51.5086 50.9134 50.9227 51.961 48.6234 51.7899ZM49.0875 47.972C48.5813 47.9532 48.2906 48.1431 48.2508 48.5087C48.2109 48.8743 48.6047 49.0009 48.982 48.9962C50.6063 48.9751 52.2633 48.1524 52.3523 46.8774C52.3523 46.8774 51.7313 48.0751 49.0875 47.972Z" fill="#D58555"/>
</g>
<defs>
<clipPath id="clip0_1771_1487">
<rect width="30" height="30" fill="white" transform="translate(30 30)"/>
</clipPath>
</defs>
</svg>
