<svg width="17" height="30" viewBox="0 0 17 30" fill="none" xmlns="http://www.w3.org/2000/svg">
<path d="M10.5911 8.46172C10.5911 6.31887 11.6625 6.31887 12.7339 6.31887H14.0196C14.2343 6.32175 14.4474 6.28159 14.6463 6.20077C14.8452 6.11995 15.0258 6.00009 15.1776 5.84829C15.3294 5.69648 15.4493 5.5158 15.5301 5.31691C15.6109 5.11803 15.6511 4.90496 15.6482 4.69029V2.67601C15.6482 2.46033 15.6054 2.24679 15.5222 2.04779C15.439 1.84879 15.3172 1.6683 15.1637 1.51679C15.0102 1.36528 14.8281 1.24577 14.628 1.1652C14.428 1.08463 14.2139 1.0446 13.9982 1.04744L10.9554 1.00458C10.0693 0.97031 9.18646 1.1287 8.36761 1.46882C7.54877 1.80894 6.81348 2.32269 6.2125 2.97461C5.61151 3.62653 5.15914 4.40109 4.8866 5.24484C4.61406 6.08858 4.52786 6.98142 4.63393 7.86172V10.9689H2.94107C2.50915 10.9689 2.09491 11.1404 1.7895 11.4459C1.48408 11.7513 1.3125 12.1655 1.3125 12.5974V14.6117C1.3125 15.0436 1.48408 15.4579 1.7895 15.7633C2.09491 16.0687 2.50915 16.2403 2.94107 16.2403H4.63393V27.7474C4.63393 28.0316 4.74681 28.3041 4.94774 28.5051C5.14867 28.706 5.4212 28.8189 5.70536 28.8189H9.58393C9.8568 28.8025 10.1131 28.6824 10.3003 28.4832C10.4875 28.284 10.5916 28.0208 10.5911 27.7474V16.2403H12.4768C12.9087 16.2403 13.3229 16.0687 13.6284 15.7633C13.9338 15.4579 14.1054 15.0436 14.1054 14.6117V12.5974C14.1054 12.1655 13.9338 11.7513 13.6284 11.4459C13.3229 11.1404 12.9087 10.9689 12.4768 10.9689H10.5911V8.46172Z" stroke="white" stroke-width="1.5" stroke-linecap="round" stroke-linejoin="round"/>
</svg>
