<svg width="25" height="26" viewBox="0 0 25 26" fill="none" xmlns="http://www.w3.org/2000/svg">
<path d="M12.3672 7.73438C11.3474 7.73438 10.3505 8.03678 9.50253 8.60336C8.65459 9.16994 7.9937 9.97523 7.60343 10.9174C7.21317 11.8596 7.11106 12.8963 7.31001 13.8966C7.50897 14.8968 8.00005 15.8155 8.72117 16.5366C9.44228 17.2578 10.361 17.7488 11.3613 17.9478C12.3615 18.1468 13.3982 18.0446 14.3404 17.6544C15.2826 17.2641 16.0879 16.6032 16.6545 15.7553C17.221 14.9073 17.5234 13.9104 17.5234 12.8906C17.5219 11.5236 16.9781 10.213 16.0115 9.24632C15.0448 8.27967 13.7342 7.73593 12.3672 7.73438ZM12.3672 17.1094C11.5328 17.1094 10.7171 16.8619 10.0234 16.3984C9.32961 15.9348 8.78888 15.2759 8.46957 14.5051C8.15026 13.7342 8.06672 12.8859 8.2295 12.0676C8.39228 11.2492 8.79408 10.4975 9.38408 9.90752C9.97408 9.31752 10.7258 8.91572 11.5441 8.75294C12.3625 8.59016 13.2108 8.6737 13.9816 8.99301C14.7525 9.31231 15.4114 9.85304 15.875 10.5468C16.3385 11.2406 16.5859 12.0562 16.5859 12.8906C16.5859 14.0095 16.1415 15.0826 15.3503 15.8737C14.5591 16.6649 13.4861 17.1094 12.3672 17.1094ZM17.9922 1.17188H6.74219C5.1266 1.17374 3.57771 1.81635 2.43531 2.95875C1.29291 4.10115 0.650298 5.65003 0.648438 7.26562V18.5156C0.650298 20.1312 1.29291 21.6801 2.43531 22.8225C3.57771 23.9649 5.1266 24.6075 6.74219 24.6094H17.9922C19.6078 24.6075 21.1567 23.9649 22.2991 22.8225C23.4415 21.6801 24.0841 20.1312 24.0859 18.5156V7.26562C24.0841 5.65003 23.4415 4.10115 22.2991 2.95875C21.1567 1.81635 19.6078 1.17374 17.9922 1.17188ZM23.1484 18.5156C23.1469 19.8827 22.6031 21.1933 21.6365 22.1599C20.6698 23.1266 19.3592 23.6703 17.9922 23.6719H6.74219C5.37514 23.6703 4.06453 23.1266 3.09788 22.1599C2.13123 21.1933 1.58749 19.8827 1.58594 18.5156V7.26562C1.58749 5.89858 2.13123 4.58797 3.09788 3.62132C4.06453 2.65467 5.37514 2.11093 6.74219 2.10938H17.9922C19.3592 2.11093 20.6698 2.65467 21.6365 3.62132C22.6031 4.58797 23.1469 5.89858 23.1484 7.26562V18.5156ZM19.3984 6.79688C19.3984 6.9823 19.3435 7.16355 19.2404 7.31772C19.1374 7.47189 18.991 7.59205 18.8197 7.66301C18.6484 7.73397 18.4599 7.75253 18.278 7.71636C18.0962 7.68019 17.9291 7.5909 17.798 7.45979C17.6669 7.32868 17.5776 7.16163 17.5415 6.97977C17.5053 6.79791 17.5238 6.60941 17.5948 6.43811C17.6658 6.2668 17.7859 6.12039 17.9401 6.01737C18.0943 5.91436 18.2755 5.85938 18.4609 5.85938C18.7096 5.85938 18.948 5.95815 19.1239 6.13396C19.2997 6.30978 19.3984 6.54823 19.3984 6.79688Z" fill="white" stroke="white"/>
</svg>
