<svg width="26" height="26" viewBox="0 0 26 26" fill="none" xmlns="http://www.w3.org/2000/svg">
<path d="M6.56074 9.14071H1.56074C1.39498 9.14071 1.23601 9.20656 1.1188 9.32377C1.00159 9.44098 0.935744 9.59995 0.935744 9.76571V24.7657C0.935744 24.9315 1.00159 25.0904 1.1188 25.2077C1.23601 25.3249 1.39498 25.3907 1.56074 25.3907H6.56074C6.7265 25.3907 6.88547 25.3249 7.00269 25.2077C7.11989 25.0904 7.18574 24.9315 7.18574 24.7657V9.76571C7.18574 9.59995 7.11989 9.44098 7.00269 9.32377C6.88547 9.20656 6.7265 9.14071 6.56074 9.14071ZM5.93574 24.1407H2.18574V10.3907H5.93574V24.1407ZM19.6857 9.14071C18.3295 9.14071 17.0107 9.58821 15.9357 10.4145V9.76571C15.9357 9.59995 15.8699 9.44098 15.7527 9.32377C15.6355 9.20656 15.4765 9.14071 15.3107 9.14071H10.3107C10.145 9.14071 9.98601 9.20656 9.8688 9.32377C9.75159 9.44098 9.68574 9.59995 9.68574 9.76571V24.7657C9.68574 24.9315 9.75159 25.0904 9.8688 25.2077C9.98601 25.3249 10.145 25.3907 10.3107 25.3907H15.3107C15.4765 25.3907 15.6355 25.3249 15.7527 25.2077C15.8699 25.0904 15.9357 24.9315 15.9357 24.7657V17.8907C15.9357 17.3934 16.1333 16.9165 16.4849 16.5649C16.8365 16.2133 17.3135 16.0157 17.8107 16.0157C18.308 16.0157 18.7849 16.2133 19.1366 16.5649C19.4882 16.9165 19.6857 17.3934 19.6857 17.8907V24.7657C19.6857 24.9315 19.7516 25.0904 19.8688 25.2077C19.986 25.3249 20.145 25.3907 20.3107 25.3907H25.3107C25.4765 25.3907 25.6355 25.3249 25.7527 25.2077C25.8699 25.0904 25.9357 24.9315 25.9357 24.7657V15.3907C25.9338 13.7337 25.2746 12.1452 24.103 10.9735C22.9313 9.80182 21.3427 9.1427 19.6857 9.14071ZM24.6857 24.1407H20.9357V17.8907C20.9357 17.0619 20.6065 16.2671 20.0205 15.681C19.4344 15.095 18.6395 14.7657 17.8107 14.7657C16.9819 14.7657 16.1871 15.095 15.601 15.681C15.015 16.2671 14.6857 17.0619 14.6857 17.8907V24.1407H10.9357V10.3907H14.6857V11.8945C14.6857 12.0239 14.7259 12.1502 14.8007 12.2558C14.8755 12.3615 14.9813 12.4413 15.1034 12.4842C15.2255 12.5271 15.3579 12.5311 15.4824 12.4956C15.6069 12.46 15.7172 12.3867 15.7982 12.2857C16.4402 11.4721 17.32 10.879 18.315 10.5892C19.3101 10.2995 20.3707 10.3274 21.3491 10.6693C22.3275 11.0111 23.1748 11.6497 23.773 12.4961C24.3711 13.3424 24.6902 14.3543 24.6857 15.3907V24.1407ZM4.52074 0.393214C4.37387 0.382862 4.22648 0.382027 4.07949 0.390714C3.6117 0.358884 3.14236 0.423442 2.70054 0.580388C2.25871 0.737334 1.85382 0.983325 1.51093 1.30312C1.16805 1.62292 0.894479 2.00972 0.707168 2.43955C0.519856 2.86938 0.422794 3.33309 0.421994 3.80196C0.418111 4.26594 0.509586 4.72576 0.690746 5.15292C0.871905 5.58008 1.13889 5.96547 1.47513 6.28519C1.81138 6.60492 2.20973 6.85216 2.64547 7.01158C3.08121 7.171 3.54506 7.2392 4.00824 7.21196H4.04324C4.49097 7.24332 4.94049 7.18618 5.36613 7.04381C5.79177 6.90144 6.1852 6.67662 6.52396 6.3822C6.86272 6.08778 7.14018 5.72952 7.34048 5.32788C7.54078 4.92623 7.66002 4.48906 7.69137 4.04134C7.72272 3.59361 7.66558 3.1441 7.52321 2.71845C7.38084 2.29281 7.15603 1.89938 6.86161 1.56062C6.56719 1.22186 6.20893 0.944406 5.80728 0.744102C5.40563 0.543799 4.96847 0.424567 4.52074 0.393214ZM4.47699 5.96571C4.33264 5.97884 4.18735 5.97758 4.04324 5.96196H4.00824C3.7074 5.98458 3.40515 5.94422 3.12079 5.84345C2.83643 5.74269 2.5762 5.58373 2.35672 5.37674C2.13724 5.16975 1.96334 4.91927 1.84611 4.64129C1.72888 4.36331 1.6709 4.06394 1.67587 3.76229C1.68085 3.46065 1.74866 3.16335 1.87499 2.88939C2.00132 2.61542 2.18339 2.37081 2.40958 2.17117C2.63576 1.97153 2.90109 1.82124 3.18862 1.7299C3.47615 1.63857 3.77956 1.60819 4.07949 1.64071C4.65302 1.588 5.224 1.76528 5.66682 2.13356C6.10964 2.50183 6.38803 3.03093 6.44074 3.60446C6.49345 4.17799 6.31617 4.74897 5.9479 5.19179C5.57962 5.63461 5.05052 5.913 4.47699 5.96571Z" fill="white"/>
</svg>
