<svg width="30" height="26" viewBox="0 0 30 26" fill="none" xmlns="http://www.w3.org/2000/svg">
<path d="M8.36402 18.0334C6.83389 19.2352 5.07763 20.117 3.19974 20.6262C2.9929 20.7013 2.81419 20.8382 2.6879 21.0184C2.5616 21.1986 2.49385 21.4133 2.49385 21.6334C2.49385 21.8534 2.5616 22.0681 2.6879 22.2483C2.81419 22.4285 2.9929 22.5654 3.19974 22.6405C18.0283 28.7262 27.4569 19.3191 26.0212 8.88336L28.4212 3.91193H25.6355C22.164 -0.352359 12.9497 -0.138073 14.4712 8.94764C14.4712 8.94764 9.5426 9.82621 3.2426 3.63336C3.09686 3.48948 2.91295 3.39038 2.71264 3.34779C2.51233 3.30521 2.30401 3.32092 2.11235 3.39308C1.92069 3.46523 1.75373 3.5908 1.63123 3.75491C1.50873 3.91902 1.43583 4.11481 1.42117 4.31907C0.755021 7.05732 1.08839 9.94343 2.36124 12.4577C3.6341 14.972 5.7628 16.9492 8.36402 18.0334Z" stroke="white" stroke-width="1.5" stroke-linecap="round" stroke-linejoin="round"/>
</svg>
