<svg width="27" height="22" viewBox="0 0 27 22" fill="none" xmlns="http://www.w3.org/2000/svg">
<path d="M17.6664 10.5004L12.0414 6.75041C11.9708 6.7033 11.8887 6.67625 11.8039 6.67214C11.7191 6.66804 11.6348 6.68703 11.56 6.72709C11.4852 6.76716 11.4226 6.82679 11.379 6.89962C11.3354 6.97246 11.3124 7.05577 11.3125 7.14065V14.6406C11.3124 14.7255 11.3354 14.8088 11.3789 14.8817C11.4224 14.9546 11.485 15.0142 11.5598 15.0543C11.6346 15.0944 11.719 15.1134 11.8038 15.1093C11.8887 15.1052 11.9708 15.0781 12.0414 15.0309L17.6664 11.2809C17.7307 11.2381 17.7834 11.1801 17.8199 11.112C17.8564 11.0439 17.8755 10.9679 17.8755 10.8906C17.8755 10.8134 17.8564 10.7374 17.8199 10.6693C17.7834 10.6012 17.7307 10.5432 17.6664 10.5004ZM12.25 13.7653V8.01604L16.5613 10.8906L12.25 13.7653ZM25.6633 4.15588C25.5717 3.79577 25.3957 3.4626 25.15 3.18386C24.9043 2.90512 24.5958 2.68881 24.25 2.55276C20.2891 1.02229 13.9223 1.0469 13.6562 1.0469C13.3902 1.0469 7.02344 1.02229 3.0625 2.55276C2.71685 2.68869 2.40845 2.90483 2.16273 3.18335C1.91701 3.46188 1.741 3.79481 1.64922 4.15471C1.35156 5.29729 1 7.39377 1 10.8906C1 14.3875 1.35156 16.484 1.64922 17.6266C1.741 17.9865 1.91701 18.3194 2.16273 18.5979C2.40845 18.8765 2.71685 19.0926 3.0625 19.2285C7.02344 20.759 13.3902 20.7344 13.6562 20.7344H13.7395C14.5469 20.7344 20.4871 20.684 24.2535 19.2285C24.5992 19.0926 24.9076 18.8765 25.1533 18.5979C25.399 18.3194 25.575 17.9865 25.6668 17.6266C25.9609 16.4828 26.3125 14.3875 26.3125 10.8906C26.3125 7.39377 25.9609 5.29729 25.6633 4.15471V4.15588ZM24.7563 17.3981C24.7018 17.6141 24.5968 17.8141 24.4499 17.9815C24.303 18.149 24.1184 18.2792 23.9113 18.3614C20.118 19.8192 13.723 19.7969 13.6562 19.7969C13.5895 19.7969 7.19805 19.8192 3.40469 18.3543C3.19762 18.2722 3.01304 18.142 2.86614 17.9745C2.71924 17.807 2.61423 17.607 2.55977 17.391C2.27383 16.3012 1.9375 14.2891 1.9375 10.8906C1.9375 7.49221 2.27383 5.4801 2.55625 4.39026C2.61072 4.17425 2.71573 3.97427 2.86262 3.80679C3.00952 3.63932 3.19411 3.50914 3.40117 3.42698C7.19453 1.96213 13.5895 1.9844 13.6562 1.9844C13.723 1.9844 20.1145 1.96096 23.9078 3.42698C24.1149 3.50914 24.2995 3.63932 24.4464 3.80679C24.5933 3.97427 24.6983 4.17425 24.7527 4.39026C25.0387 5.4801 25.375 7.49221 25.375 10.8906C25.375 14.2891 25.0387 16.3012 24.7563 17.391V17.3981Z" fill="white" stroke="white"/>
</svg>
