<svg width="52" height="52" viewBox="0 0 52 52" fill="none" xmlns="http://www.w3.org/2000/svg">
<g filter="url(#filter0_d_4125_13885)">
<rect x="4" width="44" height="44" rx="22" fill="white" shape-rendering="crispEdges"/>
<path d="M28.43 28.8172C28.24 28.8172 28.05 28.7472 27.9 28.5972C27.61 28.3072 27.61 27.8272 27.9 27.5372L33.44 21.9972L27.9 16.4572C27.61 16.1672 27.61 15.6872 27.9 15.3972C28.19 15.1072 28.67 15.1072 28.96 15.3972L35.03 21.4672C35.32 21.7572 35.32 22.2372 35.03 22.5272L28.96 28.5972C28.81 28.7472 28.62 28.8172 28.43 28.8172Z" fill="#333333"/>
<path d="M34.33 22.75H17.5C17.09 22.75 16.75 22.41 16.75 22C16.75 21.59 17.09 21.25 17.5 21.25H34.33C34.74 21.25 35.08 21.59 35.08 22C35.08 22.41 34.74 22.75 34.33 22.75Z" fill="#333333"/>
</g>
<defs>
<filter id="filter0_d_4125_13885" x="0" y="0" width="52" height="52" filterUnits="userSpaceOnUse" color-interpolation-filters="sRGB">
<feFlood flood-opacity="0" result="BackgroundImageFix"/>
<feColorMatrix in="SourceAlpha" type="matrix" values="0 0 0 0 0 0 0 0 0 0 0 0 0 0 0 0 0 0 127 0" result="hardAlpha"/>
<feOffset dy="4"/>
<feGaussianBlur stdDeviation="2"/>
<feComposite in2="hardAlpha" operator="out"/>
<feColorMatrix type="matrix" values="0 0 0 0 0 0 0 0 0 0 0 0 0 0 0 0 0 0 0.25 0"/>
<feBlend mode="normal" in2="BackgroundImageFix" result="effect1_dropShadow_4125_13885"/>
<feBlend mode="normal" in="SourceGraphic" in2="effect1_dropShadow_4125_13885" result="shape"/>
</filter>
</defs>
</svg>
