<svg width="52" height="52" viewBox="0 0 52 52" fill="none" xmlns="http://www.w3.org/2000/svg">
<g filter="url(#filter0_d_4125_13897)">
<rect x="48" y="44" width="44" height="44" rx="22" transform="rotate(180 48 44)" fill="white" shape-rendering="crispEdges"/>
<path d="M23.5699 15.1828C23.7599 15.1828 23.9499 15.2528 24.0999 15.4028C24.3899 15.6928 24.3899 16.1728 24.0999 16.4628L18.5599 22.0028L24.0999 27.5428C24.3899 27.8328 24.3899 28.3128 24.0999 28.6028C23.8099 28.8928 23.3299 28.8928 23.0399 28.6028L16.9699 22.5328C16.6799 22.2428 16.6799 21.7628 16.9699 21.4728L23.0399 15.4028C23.1899 15.2528 23.3799 15.1828 23.5699 15.1828Z" fill="#333333"/>
<path d="M17.67 21.25H34.5C34.91 21.25 35.25 21.59 35.25 22C35.25 22.41 34.91 22.75 34.5 22.75H17.67C17.26 22.75 16.92 22.41 16.92 22C16.92 21.59 17.26 21.25 17.67 21.25Z" fill="#333333"/>
</g>
<defs>
<filter id="filter0_d_4125_13897" x="0" y="0" width="52" height="52" filterUnits="userSpaceOnUse" color-interpolation-filters="sRGB">
<feFlood flood-opacity="0" result="BackgroundImageFix"/>
<feColorMatrix in="SourceAlpha" type="matrix" values="0 0 0 0 0 0 0 0 0 0 0 0 0 0 0 0 0 0 127 0" result="hardAlpha"/>
<feOffset dy="4"/>
<feGaussianBlur stdDeviation="2"/>
<feComposite in2="hardAlpha" operator="out"/>
<feColorMatrix type="matrix" values="0 0 0 0 0 0 0 0 0 0 0 0 0 0 0 0 0 0 0.25 0"/>
<feBlend mode="normal" in2="BackgroundImageFix" result="effect1_dropShadow_4125_13897"/>
<feBlend mode="normal" in="SourceGraphic" in2="effect1_dropShadow_4125_13897" result="shape"/>
</filter>
</defs>
</svg>
