<svg width="16" height="17" viewBox="0 0 16 17" fill="none" xmlns="http://www.w3.org/2000/svg">
<g id="vuesax/outline/note">
<g id="note">
<path id="Vector" d="M5.33333 4.33203C5.05999 4.33203 4.83333 4.10536 4.83333 3.83203V1.83203C4.83333 1.5587 5.05999 1.33203 5.33333 1.33203C5.60666 1.33203 5.83333 1.5587 5.83333 1.83203V3.83203C5.83333 4.10536 5.60666 4.33203 5.33333 4.33203Z" fill="#999999"/>
<path id="Vector_2" d="M10.6667 4.33203C10.3933 4.33203 10.1667 4.10536 10.1667 3.83203V1.83203C10.1667 1.5587 10.3933 1.33203 10.6667 1.33203C10.94 1.33203 11.1667 1.5587 11.1667 1.83203V3.83203C11.1667 4.10536 10.94 4.33203 10.6667 4.33203Z" fill="#999999"/>
<path id="Vector_3" d="M10 9.66797H4.66667C4.39334 9.66797 4.16667 9.4413 4.16667 9.16797C4.16667 8.89464 4.39334 8.66797 4.66667 8.66797H10C10.2733 8.66797 10.5 8.89464 10.5 9.16797C10.5 9.4413 10.2733 9.66797 10 9.66797Z" fill="#999999"/>
<path id="Vector_4" d="M8.00001 12.332H4.66667C4.39334 12.332 4.16667 12.1054 4.16667 11.832C4.16667 11.5587 4.39334 11.332 4.66667 11.332H8.00001C8.27334 11.332 8.50001 11.5587 8.50001 11.832C8.50001 12.1054 8.27334 12.332 8.00001 12.332Z" fill="#999999"/>
<path id="Vector_5" d="M10 15.6654H6C2.25333 15.6654 1.5 13.8987 1.5 11.0454V6.93203C1.5 3.77203 2.56667 2.48536 5.30667 2.33203H10.6667C10.6733 2.33203 10.6867 2.33203 10.6933 2.33203C13.4333 2.48536 14.5 3.77203 14.5 6.93203V11.0454C14.5 13.8987 13.7467 15.6654 10 15.6654ZM5.33333 3.33203C3.46667 3.4387 2.5 4.02536 2.5 6.93203V11.0454C2.5 13.5987 2.98667 14.6654 6 14.6654H10C13.0133 14.6654 13.5 13.5987 13.5 11.0454V6.93203C13.5 4.03203 12.54 3.4387 10.6533 3.33203H5.33333Z" fill="#999999"/>
</g>
</g>
</svg>
