<svg width="17" height="17" viewBox="0 0 17 17" fill="none" xmlns="http://www.w3.org/2000/svg">
<g id="vuesax/outline/edit-2">
<g id="edit-2">
<path id="Vector" d="M4.19334 13.5117C3.78667 13.5117 3.40667 13.3717 3.13334 13.1117C2.78667 12.7851 2.62001 12.2917 2.68001 11.7584L2.92667 9.5984C2.97334 9.19174 3.22001 8.65174 3.50667 8.35841L8.98001 2.56507C10.3467 1.11841 11.7733 1.07841 13.22 2.44507C14.6667 3.81174 14.7067 5.2384 13.34 6.68507L7.86667 12.4784C7.58667 12.7784 7.06667 13.0584 6.66001 13.1251L4.51334 13.4917C4.40001 13.4984 4.30001 13.5117 4.19334 13.5117ZM11.12 2.43841C10.6067 2.43841 10.16 2.75841 9.70667 3.23841L4.23334 9.03841C4.10001 9.17841 3.94667 9.51174 3.92001 9.70507L3.67334 11.8651C3.64667 12.0851 3.70001 12.2651 3.82001 12.3784C3.94001 12.4917 4.12001 12.5317 4.34001 12.4984L6.48667 12.1317C6.68001 12.0984 7.00001 11.9251 7.13334 11.7851L12.6067 5.99174C13.4333 5.11174 13.7333 4.2984 12.5267 3.16507C11.9933 2.65174 11.5333 2.43841 11.12 2.43841Z" fill="#4EAF00"/>
<path id="Vector_2" d="M12.06 7.79925C12.0467 7.79925 12.0267 7.79925 12.0133 7.79925C9.93333 7.59258 8.26 6.01258 7.94 3.94592C7.9 3.67258 8.08666 3.41925 8.36 3.37258C8.63333 3.33258 8.88666 3.51925 8.93333 3.79258C9.18666 5.40592 10.4933 6.64592 12.12 6.80591C12.3933 6.83258 12.5933 7.07925 12.5667 7.35258C12.5333 7.60591 12.3133 7.79925 12.06 7.79925Z" fill="#4EAF00"/>
<path id="Vector_3" d="M14.5 15.668H2.5C2.22667 15.668 2 15.4413 2 15.168C2 14.8946 2.22667 14.668 2.5 14.668H14.5C14.7733 14.668 15 14.8946 15 15.168C15 15.4413 14.7733 15.668 14.5 15.668Z" fill="#4EAF00"/>
</g>
</g>
</svg>
