<svg width="50" height="50" viewBox="0 0 50 50" fill="none" xmlns="http://www.w3.org/2000/svg">
<g id="vuesax/outline/import">
<g id="import">
<path id="Vector" d="M31.7917 46.3546H18.2084C7.97919 46.3546 3.60419 41.9796 3.60419 31.7504V31.4796C3.60419 22.2296 7.25002 17.7712 15.4167 17.0004C16.25 16.9379 17.0417 17.5629 17.125 18.4171C17.2084 19.2712 16.5834 20.0421 15.7084 20.1254C9.16669 20.7296 6.72919 23.8129 6.72919 31.5004V31.7712C6.72919 40.2504 9.72919 43.2504 18.2084 43.2504H31.7917C40.2709 43.2504 43.2709 40.2504 43.2709 31.7712V31.5004C43.2709 23.7712 40.7917 20.6879 34.125 20.1254C33.2709 20.0421 32.625 19.2921 32.7084 18.4379C32.7917 17.5837 33.5209 16.9379 34.3959 17.0212C42.6875 17.7296 46.3959 22.2087 46.3959 31.5212V31.7921C46.3959 41.9796 42.0209 46.3546 31.7917 46.3546Z" fill="#999999"/>
<path id="Vector_2" d="M25 32.5638C24.1458 32.5638 23.4375 31.8555 23.4375 31.0013V4.16797C23.4375 3.3138 24.1458 2.60547 25 2.60547C25.8542 2.60547 26.5625 3.3138 26.5625 4.16797V31.0013C26.5625 31.8763 25.8542 32.5638 25 32.5638Z" fill="#999999"/>
<path id="Vector_3" d="M25 34.8958C24.6042 34.8958 24.2084 34.75 23.8959 34.4375L16.9167 27.4583C16.3125 26.8542 16.3125 25.8542 16.9167 25.25C17.5209 24.6458 18.5209 24.6458 19.125 25.25L25 31.125L30.875 25.25C31.4792 24.6458 32.4792 24.6458 33.0834 25.25C33.6875 25.8542 33.6875 26.8542 33.0834 27.4583L26.1042 34.4375C25.7917 34.75 25.3959 34.8958 25 34.8958Z" fill="#999999"/>
</g>
</g>
</svg>
