<svg width="18" height="20" viewBox="0 0 18 20" fill="none" xmlns="http://www.w3.org/2000/svg">
<path d="M17.0701 15.586C16.7677 16.2848 16.4097 16.9279 15.9948 17.5194C15.4294 18.3255 14.9665 18.8834 14.6097 19.1934C14.0567 19.702 13.4641 19.9624 12.8295 19.9772C12.374 19.9772 11.8246 19.8477 11.1851 19.5847C10.5435 19.3229 9.95394 19.1934 9.41483 19.1934C8.84941 19.1934 8.24301 19.3229 7.59439 19.5847C6.94478 19.8477 6.42147 19.9847 6.02135 19.9983C5.41286 20.0241 4.80634 19.7562 4.20091 19.1934C3.81451 18.8563 3.3312 18.2785 2.7522 17.4601C2.13099 16.586 1.62027 15.5724 1.22015 14.4169C0.791651 13.1688 0.576843 11.9602 0.576843 10.7901C0.576843 9.44981 0.866466 8.2938 1.44657 7.32506C1.90248 6.54695 2.509 5.93313 3.26812 5.48254C4.02723 5.03194 4.84744 4.80231 5.73075 4.78761C6.21407 4.78761 6.84786 4.93713 7.6355 5.23094C8.42091 5.52574 8.9252 5.67525 9.14631 5.67525C9.31161 5.67525 9.87185 5.50043 10.8216 5.15193C11.7197 4.82874 12.4777 4.69491 13.0986 4.74762C14.7813 4.88342 16.0455 5.54673 16.8861 6.74176C15.3813 7.65358 14.6369 8.93069 14.6517 10.569C14.6653 11.8452 15.1282 12.9071 16.0381 13.7503C16.4503 14.1416 16.9109 14.4441 17.4232 14.6589C17.3122 14.9811 17.1948 15.2897 17.0701 15.586ZM13.211 0.400113C13.211 1.40034 12.8456 2.33425 12.1172 3.19867C11.2382 4.22628 10.1751 4.82009 9.02212 4.7264C9.00743 4.6064 8.99891 4.4801 8.99891 4.34739C8.99891 3.38718 9.41691 2.35955 10.1592 1.51934C10.5299 1.09392 11.0012 0.740188 11.5728 0.458012C12.1431 0.180045 12.6826 0.0263241 13.19 0C13.2048 0.133715 13.211 0.267438 13.211 0.400099V0.400113Z" fill="black"/>
</svg>
